<svg xmlns="http://www.w3.org/2000/svg" xmlns:xlink="http://www.w3.org/1999/xlink" width="2000" zoomAndPan="magnify" viewBox="0 0 1500 1499.999933" height="2000" preserveAspectRatio="xMidYMid meet" version="1.0"><path fill="#1e407c" d="M 1159.5 712.300781 C 1148.515625 712.300781 1145 720.269531 1144.136719 730.25 L 1171.914062 726.015625 C 1171.914062 718.617188 1167.96875 712.300781 1159.5 712.300781 Z M 1187.132812 760.332031 C 1187.417969 760.117188 1187.851562 760.117188 1188.210938 760.261719 C 1188.351562 760.40625 1188.496094 760.621094 1188.566406 760.90625 C 1188.640625 761.625 1188.640625 762.414062 1188.640625 763.132812 C 1188.640625 775.84375 1176.367188 778.5 1166.316406 778.5 C 1142.628906 778.5 1124.832031 762.917969 1124.832031 738.507812 C 1124.832031 716.175781 1138.828125 700.597656 1161.222656 700.597656 C 1179.023438 700.597656 1191.296875 711.652344 1191.296875 729.460938 C 1191.296875 731.398438 1191.152344 733.121094 1190.863281 735.0625 L 1144.355469 741.523438 C 1146.003906 755.234375 1155.265625 764.5 1170.765625 764.5 C 1176.222656 764.570312 1182.683594 763.636719 1187.132812 760.332031 Z M 1187.132812 760.332031 " fill-opacity="1" fill-rule="nonzero"/><path fill="#1e407c" d="M 658.351562 712.300781 C 647.511719 712.300781 643.996094 720.199219 643.136719 730.25 L 670.914062 726.015625 C 670.914062 718.546875 666.964844 712.300781 658.351562 712.300781 Z M 685.984375 760.332031 C 686.273438 760.117188 686.847656 760.046875 687.207031 760.261719 C 687.421875 760.40625 687.492188 760.621094 687.492188 760.90625 C 687.566406 761.625 687.566406 762.414062 687.566406 763.132812 C 687.566406 775.84375 675.21875 778.5 665.242188 778.5 C 641.414062 778.5 623.753906 762.917969 623.753906 738.507812 C 623.753906 716.175781 637.609375 700.597656 660.003906 700.597656 C 677.804688 700.597656 690.222656 711.652344 690.222656 729.460938 C 690.222656 731.398438 690.078125 733.121094 689.789062 735.0625 L 643.277344 741.523438 C 644.929688 755.234375 654.046875 764.5 669.691406 764.5 C 675.148438 764.570312 681.535156 763.636719 685.984375 760.332031 Z M 685.984375 760.332031 " fill-opacity="1" fill-rule="nonzero"/><path fill="#1e407c" d="M 1126.121094 762.773438 C 1126.265625 763.421875 1126.335938 764.640625 1126.335938 765.503906 C 1126.335938 775.195312 1115.929688 778.5 1108.035156 778.5 C 1092.601562 778.5 1082.839844 769.308594 1082.839844 753.441406 L 1082.839844 716.320312 L 1074.371094 716.320312 L 1074.371094 702.75 L 1082.839844 702.75 L 1082.839844 688.246094 L 1103.226562 688.246094 L 1103.226562 702.75 L 1123.324219 702.75 L 1123.324219 716.320312 L 1103.367188 716.320312 L 1103.367188 752.722656 C 1103.367188 760.40625 1107.890625 764.929688 1115.859375 764.929688 C 1119.089844 764.929688 1122.535156 764.066406 1124.902344 762.273438 C 1125.1875 762.058594 1125.546875 761.984375 1125.761719 762.128906 C 1125.980469 762.34375 1126.121094 762.558594 1126.121094 762.773438 Z M 1126.121094 762.773438 " fill-opacity="1" fill-rule="nonzero"/><path fill="#1e407c" d="M 802.839844 762.773438 C 802.984375 763.421875 803.054688 764.640625 803.054688 765.503906 C 803.054688 775.195312 792.503906 778.5 784.679688 778.5 C 769.105469 778.5 759.484375 769.308594 759.484375 753.441406 L 759.484375 716.320312 L 750.871094 716.320312 L 750.871094 702.75 L 759.484375 702.75 L 759.484375 688.246094 L 779.871094 688.246094 L 779.871094 702.75 L 799.96875 702.75 L 799.96875 716.320312 L 780.015625 716.320312 L 780.015625 752.722656 C 780.015625 760.40625 784.535156 764.929688 792.359375 764.929688 C 795.589844 764.929688 799.179688 764.066406 801.546875 762.273438 C 801.835938 762.058594 802.191406 761.984375 802.410156 762.128906 C 802.695312 762.34375 802.839844 762.558594 802.839844 762.773438 Z M 802.839844 762.773438 " fill-opacity="1" fill-rule="nonzero"/><path fill="#1e407c" d="M 1193.304688 712.660156 C 1194.238281 705.480469 1200.484375 701.746094 1207.230469 701.746094 C 1215.269531 701.746094 1220.941406 706.699219 1220.941406 715.171875 L 1220.941406 717.902344 L 1221.371094 717.902344 C 1227.472656 709.140625 1233.355469 700.667969 1244.410156 700.667969 C 1245.488281 700.667969 1246.78125 700.8125 1248 701.101562 L 1246.921875 720.84375 C 1244.839844 720.125 1242.6875 719.839844 1240.464844 719.839844 C 1233.214844 719.839844 1227.472656 725.871094 1222.089844 731.183594 L 1222.089844 776.34375 L 1201.773438 776.34375 L 1201.773438 719.121094 C 1201.773438 716.105469 1200.769531 712.660156 1197.109375 712.660156 C 1196.105469 712.660156 1195.171875 712.875 1194.238281 713.304688 C 1194.023438 713.449219 1193.738281 713.378906 1193.519531 713.234375 C 1193.378906 713.089844 1193.304688 712.875 1193.304688 712.660156 Z M 1193.304688 712.660156 " fill-opacity="1" fill-rule="nonzero"/><path fill="#1e407c" d="M 1326.378906 765.648438 C 1326.59375 765.503906 1326.882812 765.503906 1327.097656 765.789062 C 1327.242188 765.933594 1327.3125 766.078125 1327.242188 766.363281 C 1326.59375 772.394531 1321.644531 777.351562 1313.460938 777.351562 C 1303.914062 777.351562 1298.675781 771.175781 1298.675781 760.90625 L 1298.675781 726.660156 C 1298.675781 721.347656 1295.371094 718.691406 1291.425781 718.691406 C 1284.03125 718.691406 1277.644531 725.941406 1273.335938 730.320312 L 1273.335938 776.203125 L 1252.808594 776.203125 L 1252.808594 702.824219 L 1272.90625 702.824219 L 1272.90625 716.824219 L 1273.335938 716.824219 C 1281.519531 707.921875 1290.417969 700.667969 1302.191406 700.667969 C 1306.140625 700.667969 1310.445312 702.03125 1313.53125 704.617188 C 1318.628906 708.855469 1319.128906 715.316406 1319.128906 721.5625 L 1319.128906 759.902344 C 1319.128906 763.492188 1320.207031 766.507812 1323.507812 766.507812 C 1324.730469 766.507812 1325.589844 766.292969 1326.378906 765.648438 Z M 1326.378906 765.648438 " fill-opacity="1" fill-rule="nonzero"/><path fill="#1e407c" d="M 1019.460938 761.050781 C 1024.34375 763.921875 1030.445312 765.429688 1036.617188 765.429688 C 1043.363281 765.429688 1048.820312 763.132812 1048.820312 757.390625 C 1048.820312 752.4375 1044.007812 750.136719 1036.902344 746.691406 C 1027.285156 741.738281 1019.246094 736.710938 1019.246094 724.21875 C 1019.246094 713.019531 1028.722656 700.957031 1050.324219 700.957031 C 1056.210938 700.957031 1061.523438 701.53125 1066.402344 702.320312 L 1063.964844 716.25 C 1060.085938 715.027344 1055.0625 714.167969 1050.398438 714.167969 C 1042.933594 714.167969 1038.914062 717.183594 1038.914062 721.417969 C 1038.914062 725.941406 1044.367188 728.671875 1051.1875 732.117188 C 1060.375 736.640625 1069.273438 741.808594 1069.273438 754.445312 C 1069.273438 764.425781 1061.59375 778.570312 1038.769531 778.570312 C 1025.632812 778.570312 1017.953125 773.617188 1017.953125 763.921875 C 1017.953125 763.207031 1017.953125 762.414062 1018.027344 761.699219 C 1018.027344 761.410156 1018.242188 761.125 1018.527344 760.980469 C 1018.886719 760.835938 1019.175781 760.90625 1019.460938 761.050781 Z M 1019.460938 761.050781 " fill-opacity="1" fill-rule="nonzero"/><path fill="#1e407c" d="M 696.179688 761.050781 C 700.914062 763.921875 707.015625 765.429688 713.332031 765.429688 C 720.007812 765.429688 725.390625 763.132812 725.390625 757.390625 C 725.390625 752.4375 720.582031 750.136719 713.621094 746.691406 C 703.929688 741.738281 695.964844 736.710938 695.964844 724.21875 C 695.964844 713.019531 705.292969 700.957031 726.898438 700.957031 C 732.929688 700.957031 738.238281 701.53125 743.046875 702.320312 L 740.75 716.25 C 736.949219 715.027344 731.851562 714.167969 727.042969 714.167969 C 719.648438 714.167969 715.703125 717.183594 715.703125 721.417969 C 715.703125 725.941406 721.011719 728.671875 727.902344 732.117188 C 737.234375 736.640625 745.992188 741.808594 745.992188 754.445312 C 745.992188 764.425781 738.453125 778.570312 715.628906 778.570312 C 702.351562 778.570312 694.8125 773.617188 694.8125 763.921875 C 694.8125 763.207031 694.8125 762.414062 694.886719 761.699219 C 694.957031 761.410156 695.101562 761.125 695.390625 760.980469 C 695.53125 760.835938 695.890625 760.90625 696.179688 761.050781 Z M 696.179688 761.050781 " fill-opacity="1" fill-rule="nonzero"/><path fill="#1e407c" d="M 981.777344 712.300781 C 970.796875 712.300781 967.28125 720.269531 966.417969 730.25 L 994.195312 726.015625 C 994.195312 718.617188 990.25 712.300781 981.777344 712.300781 Z M 1009.414062 760.332031 C 1009.699219 760.117188 1010.128906 760.117188 1010.488281 760.261719 C 1010.632812 760.40625 1010.777344 760.621094 1010.777344 760.90625 C 1010.847656 761.625 1010.847656 762.414062 1010.847656 763.132812 C 1010.847656 775.84375 998.574219 778.5 988.527344 778.5 C 964.839844 778.5 947.039062 762.917969 947.039062 738.507812 C 947.039062 716.175781 960.964844 700.597656 983.429688 700.597656 C 1001.230469 700.597656 1013.503906 711.652344 1013.503906 729.460938 C 1013.503906 731.398438 1013.359375 733.121094 1013.074219 735.0625 L 966.5625 741.523438 C 968.214844 755.234375 977.472656 764.5 992.976562 764.5 C 998.503906 764.570312 1004.960938 763.636719 1009.414062 760.332031 Z M 1009.414062 760.332031 " fill-opacity="1" fill-rule="nonzero"/><path fill="#1e407c" d="M 562.242188 691.335938 L 562.242188 720.773438 C 572.722656 719.910156 577.890625 717.828125 582.195312 715.027344 C 586.648438 712.15625 589.230469 708.0625 589.445312 703.539062 C 589.589844 700.957031 588.800781 698.441406 587.148438 696.578125 C 585.28125 694.277344 582.269531 692.628906 578.175781 691.765625 C 575.878906 691.261719 572.867188 690.976562 569.777344 690.976562 C 567.339844 690.832031 564.753906 691.046875 562.242188 691.335938 Z M 562.242188 763.347656 C 564.46875 763.78125 567.699219 764.066406 570.496094 764.066406 C 578.25 764.066406 582.125 762.488281 585.066406 760.765625 C 587.9375 759.113281 590.308594 756.527344 591.816406 753.371094 C 593.320312 750.210938 593.96875 746.621094 593.609375 742.886719 C 592.964844 736.210938 588.585938 731.398438 581.335938 729.316406 C 578.964844 728.671875 576.167969 728.3125 573.082031 728.3125 C 569.5625 728.3125 565.832031 728.8125 562.171875 729.746094 L 562.171875 763.347656 Z M 568.488281 777.710938 C 559.300781 777.710938 549.464844 776.847656 540.421875 775.195312 L 539.847656 775.125 L 539.847656 681.210938 L 540.421875 681.140625 C 553.199219 679.058594 563.535156 678.050781 572.003906 678.050781 L 572.074219 678.050781 C 583.777344 678.050781 591.023438 679.34375 598.203125 682.648438 C 602.292969 684.585938 605.453125 687.242188 607.535156 690.617188 C 609.328125 693.417969 610.261719 696.648438 610.261719 700.09375 C 610.261719 702.105469 609.902344 706.199219 606.960938 710.648438 C 604.449219 714.453125 600.714844 717.683594 595.691406 720.125 C 599.0625 720.917969 602.292969 722.28125 604.949219 723.714844 C 609.832031 726.371094 613.347656 729.890625 615.429688 734.199219 C 617.4375 738.292969 618.15625 743.03125 617.582031 748.488281 C 616.507812 758.46875 609.832031 767.441406 599.78125 772.253906 C 593.609375 775.125 586.648438 776.847656 578.320312 777.421875 C 575.164062 777.636719 571.859375 777.710938 568.488281 777.710938 Z M 568.488281 777.710938 " fill-opacity="1" fill-rule="nonzero"/><path fill="#1e407c" d="M 913.878906 692.769531 C 915.457031 692.054688 916.75 692.125 917.683594 692.269531 C 922.632812 692.988281 925.289062 701.890625 924.714844 716.75 C 924.429688 723.933594 922.992188 734.773438 919.621094 744.25 C 917.96875 748.847656 916.101562 752.4375 914.019531 754.949219 C 911.722656 757.75 909.210938 759.113281 906.628906 759.183594 L 906.269531 759.183594 C 905.695312 759.183594 904.976562 759.183594 904.332031 759.042969 L 892.703125 679.847656 L 869.664062 679.847656 L 878.347656 732.332031 C 877.773438 735.992188 876.480469 742.816406 873.683594 748.917969 C 870.957031 754.734375 867.582031 758.035156 863.5625 758.683594 C 863.058594 758.753906 861.984375 758.824219 861.050781 758.824219 C 860.621094 758.824219 860.261719 758.824219 859.902344 758.753906 L 848.34375 679.847656 L 825.160156 679.847656 L 841.097656 776.558594 L 841.527344 776.632812 C 844.542969 777.351562 847.628906 777.710938 850.714844 777.710938 C 853.296875 777.710938 855.738281 777.421875 858.035156 776.917969 C 863.777344 775.628906 869.304688 772.253906 873.753906 767.082031 C 877.273438 762.917969 880 757.894531 881.648438 752.652344 L 885.597656 776.417969 L 886.027344 776.488281 C 890.261719 777.421875 893.132812 777.566406 896.292969 777.566406 C 897.152344 777.566406 898.085938 777.566406 899.019531 777.492188 C 904.832031 777.421875 910.433594 775.769531 915.386719 772.753906 C 919.980469 769.882812 924.070312 765.789062 927.515625 760.476562 C 932.394531 753.226562 936.128906 744.179688 938.640625 733.480469 C 940.867188 724.21875 942.015625 714.09375 942.015625 704.472656 C 942.015625 696.359375 940.722656 690.042969 938.28125 685.519531 C 935.484375 680.351562 931.105469 677.765625 925.578125 677.765625 C 922.5625 677.765625 919.546875 679.058594 917.179688 681.210938 C 915.386719 682.933594 912.945312 686.09375 912.730469 691.765625 C 912.730469 692.054688 912.800781 692.339844 913.015625 692.484375 C 913.230469 692.84375 913.589844 692.914062 913.878906 692.769531 Z M 913.878906 692.769531 " fill-opacity="1" fill-rule="nonzero"/><path fill="#1e407c" d="M 676.796875 869.324219 L 676.796875 844.984375 L 653.757812 844.984375 L 653.757812 869.324219 L 641.699219 869.324219 L 641.699219 816.265625 L 653.757812 816.265625 L 653.757812 836.726562 L 676.796875 836.726562 L 676.796875 816.265625 L 688.929688 816.265625 L 688.929688 869.324219 Z M 676.796875 869.324219 " fill-opacity="1" fill-rule="nonzero"/><path fill="#1e407c" d="M 718 835.21875 C 711.179688 835.21875 709.746094 842.328125 709.746094 847.714844 C 709.746094 853.097656 710.894531 863.507812 718.355469 863.507812 C 725.03125 863.507812 726.539062 854.75 726.539062 849.078125 C 726.539062 843.546875 725.175781 835.21875 718 835.21875 Z M 717.566406 870.761719 C 704.648438 870.761719 698.042969 860.996094 698.042969 848.789062 C 698.042969 836.011719 706.15625 827.898438 718.859375 827.898438 C 730.988281 827.898438 738.097656 835.433594 738.097656 847.640625 C 738.097656 860.351562 730.847656 870.761719 717.566406 870.761719 Z M 717.566406 870.761719 " fill-opacity="1" fill-rule="nonzero"/><path fill="#1e407c" d="M 1103.152344 835.21875 C 1096.335938 835.21875 1094.898438 842.328125 1094.898438 847.714844 C 1094.898438 853.097656 1096.046875 863.507812 1103.511719 863.507812 C 1110.1875 863.507812 1111.695312 854.75 1111.695312 849.078125 C 1111.695312 843.546875 1110.402344 835.21875 1103.152344 835.21875 Z M 1102.792969 870.761719 C 1089.875 870.761719 1083.269531 860.996094 1083.269531 848.789062 C 1083.269531 836.011719 1091.382812 827.898438 1104.085938 827.898438 C 1116.289062 827.898438 1123.324219 835.433594 1123.324219 847.640625 C 1123.25 860.351562 1116 870.761719 1102.792969 870.761719 Z M 1102.792969 870.761719 " fill-opacity="1" fill-rule="nonzero"/><path fill="#1e407c" d="M 792.214844 834.359375 C 786.257812 834.359375 784.320312 838.738281 783.890625 844.125 L 799.035156 841.824219 C 799.035156 837.804688 796.882812 834.359375 792.214844 834.359375 Z M 807.289062 860.566406 C 807.433594 860.421875 807.71875 860.421875 807.863281 860.566406 C 807.933594 860.636719 808.007812 860.78125 808.007812 860.925781 C 808.078125 861.355469 808.078125 861.714844 808.078125 862.144531 C 808.078125 869.039062 801.402344 870.472656 795.875 870.472656 C 782.957031 870.472656 773.265625 862 773.265625 848.71875 C 773.265625 836.511719 780.875 827.96875 793.078125 827.96875 C 802.765625 827.96875 809.515625 834.070312 809.515625 843.765625 C 809.515625 844.839844 809.441406 845.773438 809.300781 846.851562 L 783.890625 850.371094 C 784.824219 857.835938 789.847656 862.933594 798.316406 862.933594 C 801.332031 862.933594 804.847656 862.433594 807.289062 860.566406 Z M 807.289062 860.566406 " fill-opacity="1" fill-rule="nonzero"/><path fill="#1e407c" d="M 1027.644531 834.359375 C 1021.6875 834.359375 1019.75 838.738281 1019.316406 844.125 L 1034.464844 841.824219 C 1034.464844 837.804688 1032.308594 834.359375 1027.644531 834.359375 Z M 1042.789062 860.566406 C 1042.933594 860.421875 1043.21875 860.421875 1043.363281 860.566406 C 1043.433594 860.636719 1043.507812 860.78125 1043.507812 860.925781 C 1043.578125 861.355469 1043.578125 861.714844 1043.578125 862.144531 C 1043.578125 869.039062 1036.902344 870.472656 1031.375 870.472656 C 1018.457031 870.472656 1008.765625 862 1008.765625 848.71875 C 1008.765625 836.511719 1016.375 827.96875 1028.578125 827.96875 C 1038.265625 827.96875 1045.015625 834.070312 1045.015625 843.765625 C 1045.015625 844.839844 1044.941406 845.773438 1044.800781 846.851562 L 1019.390625 850.371094 C 1020.25 857.835938 1025.347656 862.933594 1033.816406 862.933594 C 1036.761719 862.933594 1040.277344 862.433594 1042.789062 860.566406 Z M 1042.789062 860.566406 " fill-opacity="1" fill-rule="nonzero"/><path fill="#1e407c" d="M 771.257812 861.929688 C 771.328125 862.289062 771.402344 863.007812 771.402344 863.4375 C 771.402344 868.679688 765.660156 870.472656 761.421875 870.472656 C 752.953125 870.472656 747.714844 865.449219 747.714844 856.832031 L 747.714844 836.585938 L 743.046875 836.585938 L 743.046875 829.117188 L 747.714844 829.117188 L 747.714844 821.21875 L 758.839844 821.21875 L 758.839844 829.117188 L 769.820312 829.117188 L 769.820312 836.585938 L 758.910156 836.585938 L 758.910156 856.402344 C 758.910156 860.566406 761.421875 863.078125 765.660156 863.078125 C 767.453125 863.078125 769.320312 862.574219 770.609375 861.570312 C 770.753906 861.425781 770.96875 861.425781 771.113281 861.5 C 771.183594 861.640625 771.257812 861.785156 771.257812 861.929688 Z M 771.257812 861.929688 " fill-opacity="1" fill-rule="nonzero"/><path fill="#1e407c" d="M 1190.433594 861.929688 C 1190.507812 862.289062 1190.578125 863.007812 1190.578125 863.4375 C 1190.578125 868.679688 1184.835938 870.472656 1180.601562 870.472656 C 1172.132812 870.472656 1166.890625 865.449219 1166.890625 856.832031 L 1166.890625 836.585938 L 1162.226562 836.585938 L 1162.226562 829.117188 L 1166.890625 829.117188 L 1166.890625 821.21875 L 1178.015625 821.21875 L 1178.015625 829.117188 L 1189 829.117188 L 1189 836.585938 L 1178.089844 836.585938 L 1178.089844 856.402344 C 1178.089844 860.566406 1180.601562 863.078125 1184.835938 863.078125 C 1186.628906 863.078125 1188.496094 862.574219 1189.789062 861.570312 C 1189.933594 861.425781 1190.148438 861.425781 1190.289062 861.5 C 1190.363281 861.640625 1190.433594 861.785156 1190.433594 861.929688 Z M 1190.433594 861.929688 " fill-opacity="1" fill-rule="nonzero"/><path fill="#1e407c" d="M 1128.277344 834.574219 C 1128.777344 830.625 1132.152344 828.613281 1135.8125 828.613281 C 1140.261719 828.613281 1143.347656 831.34375 1143.347656 836.011719 L 1143.347656 837.519531 L 1143.5625 837.519531 C 1146.867188 832.707031 1150.097656 828.039062 1156.125 828.039062 C 1156.699219 828.039062 1157.417969 828.113281 1158.0625 828.253906 L 1157.488281 839.097656 C 1156.339844 838.738281 1155.265625 838.59375 1154.042969 838.59375 C 1150.023438 838.59375 1146.9375 841.824219 1143.996094 844.769531 L 1143.996094 869.394531 L 1132.871094 869.394531 L 1132.871094 838.164062 C 1132.871094 836.511719 1132.367188 834.644531 1130.355469 834.644531 C 1129.855469 834.644531 1129.28125 834.789062 1128.777344 835.003906 C 1128.632812 835.078125 1128.492188 835.078125 1128.347656 834.933594 C 1128.277344 834.789062 1128.277344 834.71875 1128.277344 834.574219 Z M 1128.277344 834.574219 " fill-opacity="1" fill-rule="nonzero"/><path fill="#1e407c" d="M 837.003906 860.996094 C 839.589844 862.574219 842.960938 863.367188 846.335938 863.367188 C 849.996094 863.367188 852.9375 862.074219 852.9375 858.914062 C 852.9375 856.183594 850.355469 854.964844 846.480469 853.097656 C 841.238281 850.441406 836.859375 847.714844 836.859375 840.820312 C 836.859375 834.71875 841.957031 828.113281 853.730469 828.113281 C 856.957031 828.113281 859.902344 828.398438 862.484375 828.828125 L 861.195312 836.511719 C 859.113281 835.867188 856.3125 835.363281 853.730469 835.363281 C 849.636719 835.363281 847.484375 837.015625 847.484375 839.242188 C 847.484375 841.753906 850.425781 843.261719 854.160156 845.128906 C 859.183594 847.570312 863.992188 850.441406 863.992188 857.261719 C 863.992188 862.71875 859.902344 870.402344 847.414062 870.402344 C 840.234375 870.402344 836.070312 867.671875 836.070312 862.433594 C 836.070312 862 836.070312 861.570312 836.144531 861.210938 C 836.144531 861.066406 836.214844 860.925781 836.429688 860.851562 C 836.644531 860.851562 836.859375 860.851562 837.003906 860.996094 Z M 837.003906 860.996094 " fill-opacity="1" fill-rule="nonzero"/><path fill="#1e407c" d="M 1050.542969 860.996094 C 1053.125 862.574219 1056.5 863.367188 1059.871094 863.367188 C 1063.53125 863.367188 1066.476562 862.074219 1066.476562 858.914062 C 1066.476562 856.183594 1063.820312 854.964844 1060.015625 853.097656 C 1054.777344 850.441406 1050.398438 847.714844 1050.398438 840.820312 C 1050.398438 834.71875 1055.492188 828.113281 1067.265625 828.113281 C 1070.496094 828.113281 1073.4375 828.398438 1076.023438 828.828125 L 1074.730469 836.511719 C 1072.648438 835.867188 1069.847656 835.363281 1067.265625 835.363281 C 1063.175781 835.363281 1061.019531 837.015625 1061.019531 839.242188 C 1061.019531 841.753906 1063.964844 843.261719 1067.695312 845.128906 C 1072.71875 847.570312 1077.53125 850.441406 1077.53125 857.261719 C 1077.53125 862.71875 1073.4375 870.402344 1060.949219 870.402344 C 1053.699219 870.402344 1049.609375 867.671875 1049.609375 862.433594 C 1049.609375 862 1049.609375 861.570312 1049.679688 861.210938 C 1049.679688 861.066406 1049.75 860.925781 1049.96875 860.851562 C 1050.183594 860.851562 1050.398438 860.851562 1050.542969 860.996094 Z M 1050.542969 860.996094 " fill-opacity="1" fill-rule="nonzero"/><path fill="#1e407c" d="M 1193.808594 860.996094 C 1196.390625 862.574219 1199.765625 863.367188 1203.140625 863.367188 C 1206.800781 863.367188 1209.742188 862.074219 1209.742188 858.914062 C 1209.742188 856.183594 1207.085938 854.964844 1203.28125 853.097656 C 1198.042969 850.441406 1193.664062 847.714844 1193.664062 840.820312 C 1193.664062 834.71875 1198.761719 828.113281 1210.53125 828.113281 C 1213.761719 828.113281 1216.703125 828.398438 1219.289062 828.828125 L 1217.996094 836.511719 C 1215.914062 835.867188 1213.117188 835.363281 1210.53125 835.363281 C 1206.441406 835.363281 1204.289062 837.015625 1204.289062 839.242188 C 1204.289062 841.753906 1207.230469 843.261719 1210.960938 845.128906 C 1215.988281 847.570312 1220.796875 850.441406 1220.796875 857.261719 C 1220.796875 862.71875 1216.703125 870.402344 1204.214844 870.402344 C 1196.964844 870.402344 1192.875 867.671875 1192.875 862.433594 C 1192.875 862 1192.875 861.570312 1192.945312 861.210938 C 1192.945312 861.066406 1193.019531 860.925781 1193.234375 860.851562 C 1193.449219 860.851562 1193.664062 860.851562 1193.808594 860.996094 Z M 1193.808594 860.996094 " fill-opacity="1" fill-rule="nonzero"/><path fill="#1e407c" d="M 977.832031 822.800781 C 976.46875 822.800781 975.105469 822.941406 973.8125 823.15625 L 973.8125 839.742188 C 975.246094 839.886719 976.609375 839.957031 978.046875 839.957031 C 983.714844 839.957031 988.238281 837.300781 988.238281 831.414062 C 988.167969 825.167969 983.574219 822.800781 977.832031 822.800781 Z M 1007.476562 863.222656 C 1007.617188 863.148438 1007.832031 863.148438 1007.90625 863.292969 C 1007.976562 863.367188 1008.050781 863.507812 1007.976562 863.652344 C 1007.617188 868.105469 1003.671875 869.898438 999.4375 869.898438 C 988.527344 869.898438 982.425781 858.625 978.550781 846.492188 C 976.96875 846.636719 975.246094 846.636719 973.738281 846.636719 L 973.738281 869.324219 L 961.679688 869.324219 L 961.679688 816.550781 C 967.566406 816.265625 973.308594 815.976562 979.195312 815.976562 C 988.882812 815.976562 1000.441406 818.417969 1000.585938 830.335938 C 1000.585938 837.300781 995.417969 842.328125 989.457031 844.625 C 993.335938 851.878906 1000.511719 863.507812 1005.753906 863.507812 C 1006.398438 863.507812 1006.902344 863.367188 1007.476562 863.222656 Z M 1007.476562 863.222656 " fill-opacity="1" fill-rule="nonzero"/><path fill="#1e407c" d="M 899.664062 845.703125 C 898.015625 847.425781 897.152344 849.578125 897.152344 852.019531 C 897.152344 858.265625 903.039062 863.4375 909.570312 863.4375 C 911.722656 863.4375 914.019531 862.933594 915.816406 861.785156 C 910.144531 856.757812 904.546875 851.519531 899.664062 845.703125 Z M 919.40625 840.175781 C 919.1875 840.246094 919.046875 840.246094 918.972656 840.175781 C 918.902344 840.101562 918.832031 840.03125 918.757812 839.886719 C 918.6875 839.457031 918.613281 839.027344 918.613281 838.59375 C 918.613281 835.21875 921.558594 833.210938 924.644531 833.210938 C 931.03125 833.210938 934.910156 839.027344 934.910156 845.34375 C 934.910156 850.730469 932.683594 855.828125 929.238281 859.773438 C 932.898438 862.933594 936.773438 866.164062 940.507812 869.253906 L 924.429688 869.253906 C 923.78125 868.75 921.414062 866.882812 920.769531 866.308594 C 916.390625 868.894531 911.222656 870.546875 905.910156 870.546875 C 896.652344 870.546875 887.25 864.515625 887.25 854.535156 C 887.25 848.214844 890.480469 843.40625 895.933594 840.53125 C 893.636719 837.589844 891.84375 833.785156 891.84375 830.410156 C 891.84375 820.140625 901.460938 815.476562 910.289062 815.476562 C 913.734375 815.476562 917.179688 815.761719 920.625 816.191406 L 919.476562 824.738281 C 917.109375 824.019531 914.523438 823.589844 912.011719 823.589844 C 907.417969 823.589844 903.683594 825.957031 903.683594 830.839844 C 903.683594 837.160156 917.035156 848.863281 923.710938 854.75 C 924.859375 852.738281 925.433594 850.511719 925.433594 847.855469 C 925.433594 843.621094 923.425781 839.816406 920.335938 839.816406 C 920.195312 839.957031 919.761719 840.03125 919.40625 840.175781 Z M 919.40625 840.175781 " fill-opacity="1" fill-rule="nonzero"/><path fill="#1e407c" d="M 831.765625 863.582031 C 831.910156 863.507812 832.125 863.507812 832.265625 863.582031 C 832.339844 863.652344 832.484375 863.796875 832.410156 864.011719 C 831.980469 867.242188 829.324219 869.898438 824.875 869.898438 C 819.707031 869.898438 816.835938 866.523438 816.835938 860.996094 L 816.835938 812.960938 L 827.960938 812.960938 L 827.960938 860.351562 C 827.960938 862.289062 828.535156 863.867188 830.472656 863.867188 C 830.902344 863.867188 831.335938 863.796875 831.765625 863.582031 Z M 831.765625 863.582031 " fill-opacity="1" fill-rule="nonzero"/><path fill="#1e407c" d="M 374.546875 695.785156 C 376.054688 695.355469 377.917969 695.140625 379.425781 695.425781 C 387.679688 696.863281 390.765625 710.722656 390.050781 730.464844 C 389.261719 753.152344 380.359375 790.273438 363.851562 790.417969 C 362.628906 790.417969 361.050781 790.417969 359.832031 789.988281 L 343.539062 679.773438 L 313.390625 679.773438 L 325.378906 752.003906 C 323.152344 766.507812 316.910156 787.402344 304.0625 789.628906 C 302.839844 789.84375 299.683594 790.058594 297.960938 789.699219 L 281.738281 679.773438 L 251.519531 679.773438 L 273.628906 812.890625 C 281.019531 814.757812 289.203125 814.902344 296.09375 813.394531 C 312.675781 809.730469 325.308594 793.578125 329.398438 776.34375 L 335.5 812.960938 C 342.675781 814.613281 346.984375 814.542969 353.300781 814.46875 C 369.878906 814.183594 383.160156 805.066406 392.273438 791.207031 C 406.414062 769.738281 412.230469 738.9375 412.230469 713.59375 C 412.230469 692.84375 405.914062 677.261719 390.265625 677.261719 C 382.511719 677.261719 374.042969 683.722656 373.324219 694.925781 C 373.324219 695.355469 373.398438 695.644531 373.613281 695.785156 C 373.972656 695.929688 374.332031 695.929688 374.546875 695.785156 Z M 172.925781 737.144531 C 188.570312 735.921875 195.894531 732.90625 202.136719 728.8125 C 209.171875 724.21875 212.402344 717.972656 212.6875 711.941406 C 213.046875 704.90625 208.8125 697.507812 196.25 694.636719 C 189.648438 693.128906 180.820312 693.203125 172.851562 694.277344 L 172.851562 737.144531 Z M 185.414062 797.308594 C 195.820312 797.308594 201.347656 795.300781 206.15625 792.5 C 214.769531 787.546875 219.652344 777.351562 218.644531 766.796875 C 217.640625 756.457031 210.75 749.851562 200.773438 746.980469 C 193.453125 744.898438 183.332031 744.898438 172.925781 747.695312 L 172.925781 796.089844 C 176.371094 796.953125 181.464844 797.308594 185.414062 797.308594 Z M 217.785156 735.277344 C 222.738281 736.28125 228.335938 738.148438 232.859375 740.660156 C 246.566406 748.199219 251.664062 760.117188 250.15625 774.335938 C 248.648438 788.191406 239.316406 800.253906 225.679688 806.789062 C 217.28125 810.808594 207.59375 813.105469 196.109375 813.96875 C 179.886719 815.1875 161.082031 814.109375 143.710938 810.878906 L 143.710938 681.640625 C 157.851562 679.34375 173.714844 677.335938 187.710938 677.335938 C 202.855469 677.335938 213.261719 678.84375 223.527344 683.652344 C 235.65625 689.324219 239.890625 698.945312 239.964844 706.988281 C 240.035156 714.957031 235.296875 727.59375 217.785156 735.277344 Z M 217.785156 735.277344 " fill-opacity="1" fill-rule="nonzero"/><path fill="#1e407c" d="M 477.042969 631.238281 C 480.992188 679.058594 482.640625 715.675781 482.640625 746.546875 C 482.640625 777.421875 480.847656 814.039062 477.042969 861.859375 C 476.972656 862.789062 476.183594 863.507812 475.25 863.507812 C 474.316406 863.507812 473.527344 862.789062 473.453125 861.859375 C 469.507812 813.96875 467.855469 777.351562 467.855469 746.546875 C 467.855469 715.746094 469.578125 679.128906 473.453125 631.238281 C 473.527344 630.304688 474.316406 629.589844 475.25 629.589844 C 476.183594 629.589844 476.972656 630.304688 477.042969 631.238281 Z M 477.042969 631.238281 " fill-opacity="1" fill-rule="nonzero"/><path fill="#1e407c" d="M 1345.902344 762.199219 C 1345.542969 762.199219 1345.1875 762.199219 1344.898438 762.273438 L 1344.898438 766.652344 C 1345.257812 766.652344 1345.6875 766.722656 1346.046875 766.722656 C 1347.554688 766.722656 1348.917969 766.078125 1348.917969 764.425781 C 1348.917969 762.847656 1347.480469 762.199219 1345.902344 762.199219 Z M 1346.332031 768.089844 C 1345.832031 768.160156 1345.328125 768.089844 1344.828125 768.089844 L 1344.828125 773.761719 L 1342.746094 773.761719 L 1342.746094 761.050781 C 1343.894531 760.980469 1345.042969 760.90625 1346.117188 760.90625 C 1348.273438 760.90625 1350.855469 761.484375 1350.855469 764.210938 C 1350.855469 765.933594 1349.5625 767.226562 1348.128906 767.730469 C 1349.636719 770.457031 1350.855469 772.394531 1351.859375 772.394531 C 1352.003906 772.394531 1352.148438 772.394531 1352.21875 772.324219 L 1352.363281 772.394531 L 1352.363281 772.539062 C 1352.363281 773.113281 1351.859375 773.761719 1351 773.761719 C 1348.847656 773.761719 1347.554688 771.03125 1346.332031 768.089844 Z M 1346.835938 758.96875 C 1342.386719 758.96875 1338.867188 762.558594 1338.867188 767.515625 C 1338.867188 772.46875 1342.3125 776.128906 1346.835938 776.128906 C 1351.285156 776.128906 1354.660156 772.46875 1354.660156 767.515625 C 1354.730469 762.703125 1351.214844 758.96875 1346.835938 758.96875 Z M 1346.835938 777.421875 C 1341.382812 777.421875 1337.289062 773.257812 1337.289062 767.515625 C 1337.289062 761.914062 1341.382812 757.675781 1346.835938 757.675781 C 1352.292969 757.675781 1356.3125 762.058594 1356.3125 767.515625 C 1356.382812 773.1875 1352.292969 777.421875 1346.835938 777.421875 Z M 1346.835938 777.421875 " fill-opacity="1" fill-rule="nonzero"/></svg>