<svg xmlns="http://www.w3.org/2000/svg" xmlns:xlink="http://www.w3.org/1999/xlink" width="2000" zoomAndPan="magnify" viewBox="0 0 1500 1499.999933" height="2000" preserveAspectRatio="xMidYMid meet" version="1.0"><defs><clipPath id="4215980f92"><path d="M 554 848 L 616 848 L 616 946.746094 L 554 946.746094 Z M 554 848 " clip-rule="nonzero"/></clipPath><clipPath id="5d05b67639"><path d="M 627 848 L 688 848 L 688 946.746094 L 627 946.746094 Z M 627 848 " clip-rule="nonzero"/></clipPath><clipPath id="dc0c239ba7"><path d="M 734 848 L 791 848 L 791 946.746094 L 734 946.746094 Z M 734 848 " clip-rule="nonzero"/></clipPath><clipPath id="fa4e212788"><path d="M 896 848 L 953 848 L 953 946.746094 L 896 946.746094 Z M 896 848 " clip-rule="nonzero"/></clipPath><clipPath id="e315c97792"><path d="M 966 848 L 1023 848 L 1023 946.746094 L 966 946.746094 Z M 966 848 " clip-rule="nonzero"/></clipPath><clipPath id="a5723966ca"><path d="M 262.320312 850 L 327 850 L 327 945 L 262.320312 945 Z M 262.320312 850 " clip-rule="nonzero"/></clipPath><clipPath id="a149c181cc"><path d="M 1178 850 L 1237.320312 850 L 1237.320312 945 L 1178 945 Z M 1178 850 " clip-rule="nonzero"/></clipPath></defs><path fill="#444444" d="M 454.851562 585.074219 C 434.300781 602.671875 417.449219 617.207031 417.449219 617.371094 C 417.394531 617.746094 529.652344 658.191406 529.976562 657.925781 C 530.082031 657.761719 528.847656 653.6875 527.128906 648.910156 C 525.414062 644.085938 523.910156 639.847656 523.75 639.46875 C 523.589844 638.988281 526.058594 638.828125 535.074219 638.828125 L 546.554688 638.828125 L 601.71875 790.640625 L 642.445312 790.480469 L 683.171875 790.371094 L 699.863281 744.128906 C 709.039062 718.648438 716.65625 697.835938 716.820312 697.835938 C 716.980469 697.835938 739.355469 718.703125 766.453125 744.238281 L 815.820312 790.640625 L 840.023438 790.640625 C 853.328125 790.640625 889.601562 790.800781 920.617188 791.015625 L 976.960938 791.335938 L 973.042969 802.925781 C 970.84375 809.253906 969.128906 814.511719 969.234375 814.617188 C 969.503906 814.941406 1081.707031 770.039062 1081.597656 769.664062 C 1081.492188 769.34375 1014.09375 712.425781 1007.546875 707.0625 C 1006.796875 706.472656 1006.261719 707.757812 1002.824219 717.683594 L 998.960938 728.949219 L 949.757812 728.949219 L 950.722656 726.105469 C 951.257812 724.605469 963.601562 690.539062 978.089844 650.519531 C 992.578125 610.449219 1004.433594 577.457031 1004.433594 577.191406 C 1004.433594 576.761719 933.015625 575.742188 927.488281 576.171875 L 924.859375 576.332031 L 895.503906 657.761719 C 879.355469 702.554688 865.9375 739.140625 865.671875 739.085938 C 865.402344 739.035156 854.671875 729.644531 841.847656 718.273438 L 818.503906 697.566406 L 824.675781 697.191406 C 861.054688 694.832031 883.164062 680.347656 889.980469 654.382812 C 891.855469 647.25 892.285156 634.910156 890.945312 626.972656 C 886.972656 603.152344 872.164062 585.34375 850.644531 578.585938 C 842.222656 575.902344 842.703125 575.957031 758.351562 576.332031 L 679.363281 576.761719 L 660.691406 628.421875 C 650.386719 656.796875 641.800781 679.917969 641.640625 679.703125 C 641.425781 679.488281 633.054688 656.53125 623.019531 628.632812 C 612.988281 600.738281 604.5625 577.511719 604.402344 576.976562 C 604.027344 576.117188 601.074219 576.0625 552.40625 576.0625 L 500.835938 576.0625 L 496.867188 564.53125 C 494.71875 558.199219 492.789062 552.996094 492.574219 553.050781 C 492.414062 553.050781 475.402344 567.480469 454.851562 585.074219 Z M 802.511719 625.148438 C 809.703125 628.152344 812.816406 636.304688 809.972656 644.675781 C 808.898438 647.785156 805.195312 652.292969 802.566406 653.632812 C 801.386719 654.277344 795.375 654.382812 767.257812 654.382812 C 747.78125 654.382812 733.453125 654.167969 733.453125 653.902344 C 733.453125 653.472656 741.984375 628.902344 743.164062 625.792969 L 743.753906 624.34375 L 772.195312 624.34375 C 796.449219 624.34375 800.851562 624.449219 802.511719 625.148438 Z M 802.511719 625.148438 " fill-opacity="1" fill-rule="nonzero"/><g clip-path="url(#4215980f92)"><path fill="#444444" d="M 575.050781 848.898438 C 569.199219 850.292969 565.445312 852.921875 561.417969 858.339844 C 556.644531 864.828125 555.355469 871.855469 554.925781 893.152344 C 554.390625 921.425781 556.269531 931.292969 563.78125 939.289062 C 569.253906 945.1875 573.707031 946.742188 585.082031 946.742188 C 596.460938 946.742188 600.804688 945.296875 606.386719 939.714844 C 611.96875 934.136719 614.273438 927.054688 615.453125 911.605469 C 616.152344 902.808594 615.832031 883.496094 614.863281 875.933594 C 614.113281 869.980469 612.449219 864.023438 610.679688 860.753906 C 607.351562 854.636719 600.859375 849.863281 593.992188 848.574219 C 589.914062 847.824219 578.699219 847.984375 575.050781 848.898438 Z M 589.859375 863.273438 C 595.976562 865.796875 597.316406 872.070312 597.316406 897.390625 C 597.316406 922.28125 596.082031 928.503906 590.558594 931.347656 C 587.980469 932.6875 582.992188 932.742188 580.308594 931.457031 C 576.070312 929.46875 574.457031 925.339844 573.492188 914.398438 C 572.6875 905.0625 573.171875 878.9375 574.296875 872.984375 C 575.691406 865.742188 578.964844 862.523438 584.976562 862.523438 C 586.691406 862.523438 588.894531 862.84375 589.859375 863.273438 Z M 589.859375 863.273438 " fill-opacity="1" fill-rule="nonzero"/></g><g clip-path="url(#5d05b67639)"><path fill="#444444" d="M 649.152344 848.84375 C 641.75 850.34375 635.417969 854.957031 632.410156 861.128906 C 629.03125 868.046875 627.742188 877.328125 627.742188 894.921875 C 627.742188 934.40625 634.234375 946.742188 654.789062 946.742188 C 664.445312 946.742188 669.113281 944.652344 672.65625 938.804688 C 673.570312 937.25 674.425781 936.175781 674.589844 936.390625 C 674.75 936.605469 675.015625 938.589844 675.230469 940.683594 L 675.609375 944.597656 L 687.84375 944.597656 L 687.84375 893.101562 L 658.867188 893.101562 L 658.867188 908.65625 L 670.671875 908.65625 L 670.671875 912.519531 C 670.671875 920.78125 668.578125 927.808594 665.464844 930.007812 C 664.605469 930.597656 662.78125 931.402344 661.386719 931.777344 C 654.519531 933.492188 649.367188 929.738281 647.652344 921.691406 C 645.878906 913.324219 645.558594 887.519531 647.0625 876.203125 C 648.132812 868.371094 650.171875 864.613281 654.199219 863.113281 C 656.34375 862.308594 661.816406 862.363281 663.855469 863.273438 C 667.828125 864.992188 670.457031 869.710938 671.046875 876.148438 L 671.367188 880.226562 L 687.84375 880.226562 L 687.84375 875.503906 C 687.84375 869.980469 686.445312 863.757812 684.246094 859.785156 C 682.421875 856.355469 678.34375 852.597656 674.75 850.9375 C 668.738281 848.199219 657.148438 847.234375 649.152344 848.84375 Z M 649.152344 848.84375 " fill-opacity="1" fill-rule="nonzero"/></g><g clip-path="url(#dc0c239ba7)"><path fill="#444444" d="M 752.929688 848.84375 C 744.722656 851.097656 739.035156 856.355469 736.726562 863.863281 C 734.472656 871.214844 734.847656 879.472656 737.746094 885.375 C 739.945312 889.828125 744.238281 893.796875 757.117188 903.132812 C 762.914062 907.316406 768.492188 911.714844 769.511719 912.894531 C 774.074219 918.207031 773.535156 927.109375 768.4375 930.488281 C 764.789062 932.902344 758.296875 932.742188 755.507812 930.167969 C 753.414062 928.183594 752.769531 925.714844 752.394531 917.9375 L 752.074219 911.339844 L 734.578125 911.339844 L 734.203125 913.804688 C 733.398438 919.171875 735.0625 929.683594 737.53125 934.460938 C 741.929688 943.148438 749.121094 946.742188 762.160156 946.742188 C 772.464844 946.742188 777.722656 945.082031 783.035156 940.253906 C 788.347656 935.425781 790.546875 929.46875 790.546875 919.921875 C 790.546875 906.136719 786.683594 900.554688 768.707031 888.324219 C 755.882812 879.582031 752.769531 876.203125 752.769531 871.105469 C 752.769531 865.257812 758.351562 861.394531 764.46875 863.003906 C 769.40625 864.347656 771.550781 868.210938 771.550781 875.773438 L 771.550781 879.6875 L 788.722656 879.6875 L 788.722656 874.699219 C 788.667969 860.644531 782.605469 851.953125 770.640625 848.84375 C 766.722656 847.824219 756.6875 847.824219 752.929688 848.84375 Z M 752.929688 848.84375 " fill-opacity="1" fill-rule="nonzero"/></g><g clip-path="url(#fa4e212788)"><path fill="#444444" d="M 914.824219 849.003906 C 910.207031 850.238281 906.882812 852.222656 903.875 855.65625 C 897.757812 862.628906 896.578125 868.316406 896.203125 892.777344 C 895.71875 922.820312 897.382812 932.261719 904.414062 939.769531 C 909.1875 944.867188 914.5 946.742188 924.480469 946.742188 C 932.316406 946.742188 936.234375 945.9375 940.527344 943.363281 C 948.09375 938.804688 951.632812 931.1875 952.222656 917.882812 L 952.546875 910.800781 L 934.675781 910.800781 L 934.675781 915.628906 C 934.675781 924.695312 932.90625 929.523438 928.9375 931.292969 C 925.929688 932.636719 921.90625 932.421875 919.761719 930.8125 C 915.253906 927.433594 914.664062 923.730469 914.609375 897.660156 C 914.554688 876.042969 914.929688 871.320312 917.023438 866.921875 C 918.417969 864.132812 921.207031 862.523438 924.75 862.523438 C 930.707031 862.523438 933.710938 866.546875 934.464844 875.449219 L 934.839844 879.6875 L 952.007812 879.6875 L 951.6875 874.164062 C 950.777344 859.304688 944.765625 851.042969 933.175781 848.628906 C 928.882812 847.71875 918.902344 847.929688 914.824219 849.003906 Z M 914.824219 849.003906 " fill-opacity="1" fill-rule="nonzero"/></g><g clip-path="url(#e315c97792)"><path fill="#444444" d="M 984.257812 849.058594 C 979.914062 850.292969 976.746094 852.222656 973.742188 855.441406 C 969.34375 860.109375 967.410156 865.527344 967.410156 873.089844 C 967.410156 885.320312 970.363281 889.613281 987.265625 901.683594 C 1002.503906 912.625 1004.597656 915.039062 1004.648438 921.53125 C 1004.648438 928.503906 1001.109375 931.992188 993.863281 931.992188 C 986.78125 931.992188 984.957031 929.308594 984.6875 918.472656 L 984.472656 911.339844 L 966.335938 911.339844 L 966.335938 917.347656 C 966.335938 927.21875 968.644531 934.835938 973.042969 939.714844 C 975.40625 942.292969 981.148438 945.347656 985.441406 946.207031 C 989.679688 947.121094 1002.824219 946.636719 1006.421875 945.457031 C 1010.980469 944.007812 1015.648438 940.519531 1018.226562 936.660156 C 1021.660156 931.5625 1022.410156 928.503906 1022.410156 919.921875 C 1022.410156 911.285156 1021.605469 908.175781 1018.226562 903.183594 C 1015.328125 899 1011.144531 895.460938 1000.570312 888.273438 C 985.332031 877.863281 981.953125 872.714844 986.351562 866.222656 C 990.324219 860.324219 1000.734375 862.148438 1002.824219 869.121094 C 1003.203125 870.355469 1003.628906 873.25 1003.792969 875.503906 L 1004.058594 879.6875 L 1021.230469 879.6875 L 1020.910156 873.894531 C 1020.425781 864.722656 1018.171875 859.089844 1013.128906 854.367188 C 1009.910156 851.363281 1007.171875 849.917969 1002.71875 848.84375 C 998.050781 847.769531 988.445312 847.878906 984.257812 849.058594 Z M 984.257812 849.058594 " fill-opacity="1" fill-rule="nonzero"/></g><g clip-path="url(#a5723966ca)"><path fill="#444444" d="M 262.320312 851.097656 C 262.320312 851.632812 266.988281 872.824219 272.675781 898.195312 L 283.03125 944.328125 L 294.785156 944.492188 L 306.589844 944.597656 L 316.195312 898.625 C 321.507812 873.304688 325.90625 852.0625 326.066406 851.363281 L 326.28125 850.183594 L 316.730469 850.292969 L 307.179688 850.453125 L 301.167969 886.609375 C 297.84375 906.457031 295.050781 922.820312 294.945312 922.925781 C 294.835938 923.035156 291.726562 906.726562 288.023438 886.769531 L 281.316406 850.453125 L 271.816406 850.292969 C 263.015625 850.183594 262.320312 850.238281 262.320312 851.097656 Z M 262.320312 851.097656 " fill-opacity="1" fill-rule="nonzero"/></g><path fill="#444444" d="M 336.371094 897.390625 L 336.371094 944.597656 L 354.078125 944.597656 L 354.078125 903.132812 L 359.871094 903.453125 C 368.40625 903.9375 371.140625 904.6875 373.503906 906.992188 C 374.574219 908.121094 375.703125 909.890625 376.023438 911.070312 C 376.292969 912.25 376.722656 918.257812 376.882812 924.480469 C 377.257812 935.960938 377.902344 943.417969 378.652344 944.167969 C 378.921875 944.4375 383.75 944.542969 389.441406 944.492188 L 399.796875 944.328125 L 398.617188 942.828125 C 396.199219 939.824219 395.449219 935.746094 394.914062 922.980469 C 394.375 910.910156 393.785156 907.476562 391.640625 903.292969 C 390.511719 901.09375 387.238281 897.875 384.933594 896.695312 L 383.324219 895.835938 L 385.253906 895.03125 C 391.640625 892.347656 394.859375 885.589844 394.859375 874.859375 C 394.859375 863.59375 391.050781 855.976562 383.75 852.757812 C 378.707031 850.507812 375.164062 850.183594 355.3125 850.183594 L 336.371094 850.183594 Z M 369.691406 864.667969 C 374.46875 866.0625 376.5625 869.550781 376.613281 876.09375 C 376.613281 881.726562 375.757812 884.785156 373.664062 886.929688 C 371.355469 889.238281 368.40625 889.882812 360.570312 889.882812 L 354.078125 889.882812 L 354.078125 863.433594 L 360.945312 863.757812 C 364.703125 863.917969 368.621094 864.347656 369.691406 864.667969 Z M 369.691406 864.667969 " fill-opacity="1" fill-rule="nonzero"/><path fill="#444444" d="M 408.273438 897.390625 L 408.273438 944.597656 L 457.640625 944.597656 L 457.640625 928.503906 L 426.519531 928.503906 L 426.519531 850.183594 L 408.273438 850.183594 Z M 408.273438 897.390625 " fill-opacity="1" fill-rule="nonzero"/><path fill="#444444" d="M 500.03125 897.390625 L 500.03125 944.597656 L 549.398438 944.597656 L 549.398438 928.503906 L 518.277344 928.503906 L 518.277344 850.183594 L 500.03125 850.183594 Z M 500.03125 897.390625 " fill-opacity="1" fill-rule="nonzero"/><path fill="#444444" d="M 702.867188 897.390625 L 702.867188 944.597656 L 720.574219 944.597656 L 720.574219 850.183594 L 702.867188 850.183594 Z M 702.867188 897.390625 " fill-opacity="1" fill-rule="nonzero"/><path fill="#444444" d="M 797.84375 858.230469 L 797.84375 866.277344 L 817.699219 866.277344 L 817.699219 944.597656 L 835.40625 944.597656 L 835.40625 866.277344 L 855.796875 866.277344 L 855.796875 850.183594 L 797.84375 850.183594 Z M 797.84375 858.230469 " fill-opacity="1" fill-rule="nonzero"/><path fill="#444444" d="M 864.382812 897.390625 L 864.382812 944.597656 L 882.089844 944.597656 L 882.089844 850.183594 L 864.382812 850.183594 Z M 864.382812 897.390625 " fill-opacity="1" fill-rule="nonzero"/><path fill="#444444" d="M 1067.21875 897.390625 L 1067.21875 944.597656 L 1117.121094 944.597656 L 1117.121094 928.503906 L 1085.460938 928.503906 L 1085.460938 850.183594 L 1067.21875 850.183594 Z M 1067.21875 897.390625 " fill-opacity="1" fill-rule="nonzero"/><path fill="#444444" d="M 1111.21875 858.230469 L 1111.21875 866.277344 L 1131.609375 866.277344 L 1131.609375 944.597656 L 1149.316406 944.597656 L 1149.316406 866.277344 L 1169.171875 866.277344 L 1169.171875 850.183594 L 1111.21875 850.183594 Z M 1111.21875 858.230469 " fill-opacity="1" fill-rule="nonzero"/><g clip-path="url(#a149c181cc)"><path fill="#444444" d="M 1178.292969 897.390625 L 1178.292969 944.707031 L 1197.773438 944.4375 C 1217.949219 944.222656 1219.824219 944.007812 1224.332031 941.703125 C 1229.269531 939.125 1233.832031 931.5625 1235.816406 922.550781 C 1236.78125 918.152344 1236.945312 915.09375 1237.160156 899.054688 C 1237.535156 873.789062 1236.675781 867.617188 1231.683594 860.214844 C 1228.949219 856.140625 1225.40625 853.351562 1220.738281 851.742188 C 1217.359375 850.558594 1216.390625 850.507812 1197.773438 850.292969 L 1178.292969 850.078125 Z M 1210.488281 865.203125 C 1213.707031 866.0625 1216.339844 869.605469 1217.839844 875.128906 C 1219.664062 881.996094 1219.933594 906.992188 1218.269531 916.863281 C 1217.839844 919.171875 1216.820312 922.605469 1215.910156 924.535156 C 1213.707031 929.257812 1211.992188 930.007812 1202.441406 930.488281 L 1195.464844 930.8125 L 1195.464844 863.972656 L 1202.066406 864.347656 C 1205.660156 864.5625 1209.46875 864.9375 1210.488281 865.203125 Z M 1210.488281 865.203125 " fill-opacity="1" fill-rule="nonzero"/></g></svg>