<svg xmlns="http://www.w3.org/2000/svg" xmlns:xlink="http://www.w3.org/1999/xlink" width="2000" zoomAndPan="magnify" viewBox="0 0 1500 1499.999933" height="2000" preserveAspectRatio="xMidYMid meet" version="1.0"><path fill="#1e407c" d="M 1233.320312 705.460938 C 1220.355469 705.460938 1216.203125 714.867188 1215.1875 726.648438 L 1247.976562 721.648438 C 1247.976562 712.917969 1243.316406 705.460938 1233.320312 705.460938 Z M 1265.941406 762.164062 C 1266.28125 761.910156 1266.789062 761.910156 1267.210938 762.082031 C 1267.382812 762.25 1267.550781 762.503906 1267.636719 762.84375 C 1267.722656 763.691406 1267.722656 764.625 1267.722656 765.472656 C 1267.722656 780.472656 1253.230469 783.609375 1241.367188 783.609375 C 1213.40625 783.609375 1192.394531 765.214844 1192.394531 736.398438 C 1192.394531 710.035156 1208.917969 691.644531 1235.351562 691.644531 C 1256.367188 691.644531 1270.855469 704.695312 1270.855469 725.71875 C 1270.855469 728.007812 1270.6875 730.039062 1270.347656 732.328125 L 1215.441406 739.957031 C 1217.390625 756.148438 1228.320312 767.082031 1246.621094 767.082031 C 1253.0625 767.167969 1260.6875 766.0625 1265.941406 762.164062 Z M 1265.941406 762.164062 " fill-opacity="1" fill-rule="nonzero"/><path fill="#1e407c" d="M 641.714844 705.460938 C 628.917969 705.460938 624.769531 714.785156 623.75 726.648438 L 656.542969 721.648438 C 656.542969 712.832031 651.882812 705.460938 641.714844 705.460938 Z M 674.335938 762.164062 C 674.675781 761.910156 675.351562 761.828125 675.777344 762.082031 C 676.03125 762.25 676.117188 762.503906 676.117188 762.84375 C 676.199219 763.691406 676.199219 764.625 676.199219 765.472656 C 676.199219 780.472656 661.625 783.609375 649.847656 783.609375 C 621.71875 783.609375 600.875 765.214844 600.875 736.398438 C 600.875 710.035156 617.226562 691.644531 643.664062 691.644531 C 664.675781 691.644531 679.335938 704.695312 679.335938 725.71875 C 679.335938 728.007812 679.167969 730.039062 678.828125 732.328125 L 623.921875 739.957031 C 625.871094 756.148438 636.628906 767.082031 655.101562 767.082031 C 661.542969 767.167969 669.082031 766.0625 674.335938 762.164062 Z M 674.335938 762.164062 " fill-opacity="1" fill-rule="nonzero"/><path fill="#1e407c" d="M 1193.917969 765.046875 C 1194.089844 765.808594 1194.171875 767.25 1194.171875 768.269531 C 1194.171875 779.710938 1181.886719 783.609375 1172.566406 783.609375 C 1154.347656 783.609375 1142.824219 772.761719 1142.824219 754.027344 L 1142.824219 710.207031 L 1132.828125 710.207031 L 1132.828125 694.1875 L 1142.824219 694.1875 L 1142.824219 677.0625 L 1166.890625 677.0625 L 1166.890625 694.1875 L 1190.613281 694.1875 L 1190.613281 710.207031 L 1167.058594 710.207031 L 1167.058594 753.179688 C 1167.058594 762.25 1172.398438 767.589844 1181.800781 767.589844 C 1185.613281 767.589844 1189.683594 766.574219 1192.476562 764.453125 C 1192.816406 764.199219 1193.242188 764.113281 1193.496094 764.285156 C 1193.75 764.539062 1193.917969 764.792969 1193.917969 765.046875 Z M 1193.917969 765.046875 " fill-opacity="1" fill-rule="nonzero"/><path fill="#1e407c" d="M 812.28125 765.046875 C 812.453125 765.808594 812.535156 767.25 812.535156 768.269531 C 812.535156 779.710938 800.082031 783.609375 790.84375 783.609375 C 772.457031 783.609375 761.101562 772.761719 761.101562 754.027344 L 761.101562 710.207031 L 750.933594 710.207031 L 750.933594 694.1875 L 761.101562 694.1875 L 761.101562 677.0625 L 785.167969 677.0625 L 785.167969 694.1875 L 808.890625 694.1875 L 808.890625 710.207031 L 785.335938 710.207031 L 785.335938 753.179688 C 785.335938 762.25 790.675781 767.589844 799.910156 767.589844 C 803.722656 767.589844 807.960938 766.574219 810.757812 764.453125 C 811.09375 764.199219 811.519531 764.113281 811.773438 764.285156 C 812.113281 764.539062 812.28125 764.792969 812.28125 765.046875 Z M 812.28125 765.046875 " fill-opacity="1" fill-rule="nonzero"/><path fill="#1e407c" d="M 1273.230469 705.882812 C 1274.332031 697.40625 1281.703125 693 1289.667969 693 C 1299.15625 693 1305.851562 698.847656 1305.851562 708.851562 L 1305.851562 712.070312 L 1306.359375 712.070312 C 1313.5625 701.730469 1320.507812 691.726562 1333.558594 691.726562 C 1334.828125 691.726562 1336.355469 691.898438 1337.796875 692.238281 L 1336.523438 715.546875 C 1334.066406 714.699219 1331.523438 714.359375 1328.898438 714.359375 C 1320.339844 714.359375 1313.5625 721.480469 1307.207031 727.75 L 1307.207031 781.066406 L 1283.226562 781.066406 L 1283.226562 713.511719 C 1283.226562 709.953125 1282.042969 705.882812 1277.71875 705.882812 C 1276.535156 705.882812 1275.433594 706.136719 1274.332031 706.644531 C 1274.078125 706.816406 1273.738281 706.730469 1273.484375 706.5625 C 1273.3125 706.390625 1273.230469 706.136719 1273.230469 705.882812 Z M 1273.230469 705.882812 " fill-opacity="1" fill-rule="nonzero"/><path fill="#1e407c" d="M 1430.324219 768.4375 C 1430.578125 768.269531 1430.917969 768.269531 1431.171875 768.605469 C 1431.339844 768.777344 1431.425781 768.945312 1431.339844 769.285156 C 1430.578125 776.40625 1424.730469 782.253906 1415.070312 782.253906 C 1403.800781 782.253906 1397.617188 774.964844 1397.617188 762.84375 L 1397.617188 722.410156 C 1397.617188 716.140625 1393.71875 713.003906 1389.058594 713.003906 C 1380.332031 713.003906 1372.789062 721.5625 1367.707031 726.734375 L 1367.707031 780.898438 L 1343.472656 780.898438 L 1343.472656 694.269531 L 1367.199219 694.269531 L 1367.199219 710.800781 L 1367.707031 710.800781 C 1377.367188 700.289062 1387.871094 691.726562 1401.769531 691.726562 C 1406.429688 691.726562 1411.511719 693.339844 1415.15625 696.390625 C 1421.171875 701.390625 1421.765625 709.019531 1421.765625 716.394531 L 1421.765625 761.65625 C 1421.765625 765.894531 1423.035156 769.453125 1426.933594 769.453125 C 1428.375 769.453125 1429.390625 769.199219 1430.324219 768.4375 Z M 1430.324219 768.4375 " fill-opacity="1" fill-rule="nonzero"/><path fill="#1e407c" d="M 1068.003906 763.011719 C 1073.765625 766.402344 1080.96875 768.183594 1088.257812 768.183594 C 1096.222656 768.183594 1102.660156 765.472656 1102.660156 758.691406 C 1102.660156 752.839844 1096.984375 750.128906 1088.597656 746.058594 C 1077.242188 740.210938 1067.75 734.277344 1067.75 719.53125 C 1067.75 706.308594 1078.9375 692.066406 1104.441406 692.066406 C 1111.390625 692.066406 1117.660156 692.746094 1123.421875 693.675781 L 1120.539062 710.121094 C 1115.964844 708.679688 1110.035156 707.664062 1104.527344 707.664062 C 1095.714844 707.664062 1090.96875 711.222656 1090.96875 716.222656 C 1090.96875 721.5625 1097.40625 724.785156 1105.457031 728.855469 C 1116.304688 734.195312 1126.808594 740.296875 1126.808594 755.214844 C 1126.808594 766.996094 1117.742188 783.695312 1090.800781 783.695312 C 1075.292969 783.695312 1066.226562 777.847656 1066.226562 766.402344 C 1066.226562 765.554688 1066.226562 764.625 1066.3125 763.777344 C 1066.3125 763.4375 1066.566406 763.097656 1066.902344 762.929688 C 1067.328125 762.757812 1067.667969 762.84375 1068.003906 763.011719 Z M 1068.003906 763.011719 " fill-opacity="1" fill-rule="nonzero"/><path fill="#1e407c" d="M 686.367188 763.011719 C 691.960938 766.402344 699.164062 768.183594 706.621094 768.183594 C 714.5 768.183594 720.855469 765.472656 720.855469 758.691406 C 720.855469 752.839844 715.179688 750.128906 706.957031 746.058594 C 695.519531 740.210938 686.113281 734.277344 686.113281 719.53125 C 686.113281 706.308594 697.128906 692.066406 722.632812 692.066406 C 729.75 692.066406 736.023438 692.746094 741.699219 693.675781 L 738.988281 710.121094 C 734.496094 708.679688 728.480469 707.664062 722.804688 707.664062 C 714.078125 707.664062 709.417969 711.222656 709.417969 716.222656 C 709.417969 721.5625 715.6875 724.785156 723.820312 728.855469 C 734.835938 734.195312 745.171875 740.296875 745.171875 755.214844 C 745.171875 766.996094 736.277344 783.695312 709.332031 783.695312 C 693.65625 783.695312 684.757812 777.847656 684.757812 766.402344 C 684.757812 765.554688 684.757812 764.625 684.84375 763.777344 C 684.929688 763.4375 685.097656 763.097656 685.4375 762.929688 C 685.605469 762.757812 686.03125 762.84375 686.367188 763.011719 Z M 686.367188 763.011719 " fill-opacity="1" fill-rule="nonzero"/><path fill="#1e407c" d="M 1023.519531 705.460938 C 1010.558594 705.460938 1006.40625 714.867188 1005.386719 726.648438 L 1038.179688 721.648438 C 1038.179688 712.917969 1033.519531 705.460938 1023.519531 705.460938 Z M 1056.144531 762.164062 C 1056.480469 761.910156 1056.992188 761.910156 1057.414062 762.082031 C 1057.582031 762.25 1057.753906 762.503906 1057.753906 762.84375 C 1057.835938 763.691406 1057.835938 764.625 1057.835938 765.472656 C 1057.835938 780.472656 1043.347656 783.609375 1031.484375 783.609375 C 1003.523438 783.609375 982.511719 765.214844 982.511719 736.398438 C 982.511719 710.035156 998.949219 691.644531 1025.46875 691.644531 C 1046.484375 691.644531 1060.972656 704.695312 1060.972656 725.71875 C 1060.972656 728.007812 1060.804688 730.039062 1060.464844 732.328125 L 1005.558594 739.957031 C 1007.507812 756.148438 1018.4375 767.082031 1036.738281 767.082031 C 1043.265625 767.167969 1050.890625 766.0625 1056.144531 762.164062 Z M 1056.144531 762.164062 " fill-opacity="1" fill-rule="nonzero"/><path fill="#1e407c" d="M 528.257812 680.710938 L 528.257812 715.460938 C 540.628906 714.445312 546.730469 711.984375 551.8125 708.679688 C 557.066406 705.289062 560.117188 700.457031 560.371094 695.117188 C 560.539062 692.066406 559.609375 689.101562 557.660156 686.898438 C 555.457031 684.183594 551.898438 682.234375 547.066406 681.21875 C 544.355469 680.625 540.796875 680.285156 537.152344 680.285156 C 534.273438 680.117188 531.222656 680.371094 528.257812 680.710938 Z M 528.257812 765.726562 C 530.882812 766.234375 534.695312 766.574219 538 766.574219 C 547.152344 766.574219 551.726562 764.707031 555.203125 762.675781 C 558.589844 760.722656 561.386719 757.671875 563.167969 753.945312 C 564.945312 750.214844 565.710938 745.976562 565.285156 741.566406 C 564.523438 733.683594 559.355469 728.007812 550.796875 725.546875 C 548 724.785156 544.695312 724.363281 541.050781 724.363281 C 536.898438 724.363281 532.492188 724.953125 528.171875 726.058594 L 528.171875 765.726562 Z M 535.628906 782.675781 C 524.78125 782.675781 513.175781 781.660156 502.5 779.710938 L 501.820312 779.625 L 501.820312 668.757812 L 502.5 668.671875 C 517.582031 666.214844 529.78125 665.027344 539.78125 665.027344 L 539.867188 665.027344 C 553.675781 665.027344 562.234375 666.554688 570.707031 670.453125 C 575.539062 672.742188 579.265625 675.878906 581.722656 679.863281 C 583.84375 683.167969 584.945312 686.980469 584.945312 691.050781 C 584.945312 693.421875 584.519531 698.253906 581.046875 703.511719 C 578.082031 708.003906 573.675781 711.816406 567.742188 714.699219 C 571.726562 715.632812 575.539062 717.242188 578.671875 718.9375 C 584.433594 722.074219 588.585938 726.226562 591.042969 731.3125 C 593.417969 736.144531 594.265625 741.738281 593.585938 748.179688 C 592.316406 759.960938 584.433594 770.558594 572.574219 776.234375 C 565.285156 779.625 557.066406 781.660156 547.238281 782.339844 C 543.507812 782.59375 539.613281 782.675781 535.628906 782.675781 Z M 535.628906 782.675781 " fill-opacity="1" fill-rule="nonzero"/><path fill="#1e407c" d="M 943.363281 682.40625 C 945.226562 681.558594 946.753906 681.640625 947.855469 681.8125 C 953.699219 682.660156 956.835938 693.167969 956.160156 710.714844 C 955.820312 719.191406 954.125 731.988281 950.140625 743.179688 C 948.195312 748.601562 945.992188 752.839844 943.53125 755.808594 C 940.820312 759.113281 937.855469 760.722656 934.804688 760.808594 L 934.382812 760.808594 C 933.703125 760.808594 932.855469 760.808594 932.09375 760.640625 L 918.367188 667.148438 L 891.167969 667.148438 L 901.421875 729.109375 C 900.742188 733.429688 899.21875 741.484375 895.914062 748.6875 C 892.695312 755.554688 888.710938 759.453125 883.964844 760.214844 C 883.371094 760.300781 882.101562 760.386719 881 760.386719 C 880.492188 760.386719 880.066406 760.386719 879.644531 760.300781 L 866.003906 667.148438 L 838.632812 667.148438 L 857.445312 781.320312 L 857.953125 781.40625 C 861.511719 782.253906 865.15625 782.675781 868.796875 782.675781 C 871.847656 782.675781 874.730469 782.339844 877.441406 781.746094 C 884.21875 780.21875 890.746094 776.234375 895.996094 770.132812 C 900.148438 765.214844 903.371094 759.285156 905.320312 753.097656 L 909.980469 781.152344 L 910.488281 781.238281 C 915.488281 782.339844 918.875 782.507812 922.605469 782.507812 C 923.621094 782.507812 924.722656 782.507812 925.824219 782.421875 C 932.6875 782.339844 939.296875 780.390625 945.144531 776.828125 C 950.566406 773.4375 955.394531 768.605469 959.460938 762.335938 C 965.226562 753.773438 969.628906 743.09375 972.597656 730.464844 C 975.222656 719.53125 976.578125 707.578125 976.578125 696.21875 C 976.578125 686.640625 975.054688 679.183594 972.171875 673.84375 C 968.867188 667.742188 963.699219 664.6875 957.175781 664.6875 C 953.617188 664.6875 950.058594 666.214844 947.261719 668.757812 C 945.144531 670.792969 942.261719 674.523438 942.007812 681.21875 C 942.007812 681.558594 942.09375 681.894531 942.347656 682.066406 C 942.601562 682.488281 943.023438 682.574219 943.363281 682.40625 Z M 943.363281 682.40625 " fill-opacity="1" fill-rule="nonzero"/><path fill="#1e407c" d="M 663.492188 890.832031 L 663.492188 862.097656 L 636.292969 862.097656 L 636.292969 890.832031 L 622.054688 890.832031 L 622.054688 828.195312 L 636.292969 828.195312 L 636.292969 852.351562 L 663.492188 852.351562 L 663.492188 828.195312 L 677.8125 828.195312 L 677.8125 890.832031 Z M 663.492188 890.832031 " fill-opacity="1" fill-rule="nonzero"/><path fill="#1e407c" d="M 712.128906 850.570312 C 704.078125 850.570312 702.382812 858.964844 702.382812 865.320312 C 702.382812 871.675781 703.738281 883.96875 712.550781 883.96875 C 720.429688 883.96875 722.210938 873.628906 722.210938 866.929688 C 722.210938 860.40625 720.601562 850.570312 712.128906 850.570312 Z M 711.621094 892.527344 C 696.367188 892.527344 688.570312 881 688.570312 866.59375 C 688.570312 851.503906 698.148438 841.925781 713.144531 841.925781 C 727.464844 841.925781 735.851562 850.828125 735.851562 865.234375 C 735.851562 880.238281 727.292969 892.527344 711.621094 892.527344 Z M 711.621094 892.527344 " fill-opacity="1" fill-rule="nonzero"/><path fill="#1e407c" d="M 1166.804688 850.570312 C 1158.753906 850.570312 1157.058594 858.964844 1157.058594 865.320312 C 1157.058594 871.675781 1158.414062 883.96875 1167.226562 883.96875 C 1175.109375 883.96875 1176.886719 873.628906 1176.886719 866.929688 C 1176.886719 860.40625 1175.363281 850.570312 1166.804688 850.570312 Z M 1166.378906 892.527344 C 1151.128906 892.527344 1143.332031 881 1143.332031 866.59375 C 1143.332031 851.503906 1152.90625 841.925781 1167.90625 841.925781 C 1182.308594 841.925781 1190.613281 850.828125 1190.613281 865.234375 C 1190.53125 880.238281 1181.972656 892.527344 1166.378906 892.527344 Z M 1166.378906 892.527344 " fill-opacity="1" fill-rule="nonzero"/><path fill="#1e407c" d="M 799.742188 849.554688 C 792.707031 849.554688 790.421875 854.726562 789.914062 861.082031 L 807.789062 858.371094 C 807.789062 853.625 805.25 849.554688 799.742188 849.554688 Z M 817.535156 880.492188 C 817.703125 880.324219 818.042969 880.324219 818.214844 880.492188 C 818.296875 880.578125 818.382812 880.746094 818.382812 880.917969 C 818.46875 881.425781 818.46875 881.847656 818.46875 882.359375 C 818.46875 890.496094 810.585938 892.191406 804.0625 892.191406 C 788.8125 892.191406 777.371094 882.1875 777.371094 866.507812 C 777.371094 852.097656 786.355469 842.011719 800.757812 842.011719 C 812.195312 842.011719 820.160156 849.214844 820.160156 860.660156 C 820.160156 861.929688 820.078125 863.03125 819.90625 864.304688 L 789.914062 868.457031 C 791.015625 877.273438 796.945312 883.289062 806.945312 883.289062 C 810.503906 883.289062 814.65625 882.695312 817.535156 880.492188 Z M 817.535156 880.492188 " fill-opacity="1" fill-rule="nonzero"/><path fill="#1e407c" d="M 1077.664062 849.554688 C 1070.632812 849.554688 1068.34375 854.726562 1067.835938 861.082031 L 1085.714844 858.371094 C 1085.714844 853.625 1083.171875 849.554688 1077.664062 849.554688 Z M 1095.542969 880.492188 C 1095.714844 880.324219 1096.050781 880.324219 1096.222656 880.492188 C 1096.304688 880.578125 1096.390625 880.746094 1096.390625 880.917969 C 1096.476562 881.425781 1096.476562 881.847656 1096.476562 882.359375 C 1096.476562 890.496094 1088.597656 892.191406 1082.070312 892.191406 C 1066.820312 892.191406 1055.378906 882.1875 1055.378906 866.507812 C 1055.378906 852.097656 1064.363281 842.011719 1078.765625 842.011719 C 1090.207031 842.011719 1098.171875 849.214844 1098.171875 860.660156 C 1098.171875 861.929688 1098.085938 863.03125 1097.917969 864.304688 L 1067.921875 868.457031 C 1068.9375 877.273438 1074.953125 883.289062 1084.953125 883.289062 C 1088.425781 883.289062 1092.578125 882.695312 1095.542969 880.492188 Z M 1095.542969 880.492188 " fill-opacity="1" fill-rule="nonzero"/><path fill="#1e407c" d="M 775 882.101562 C 775.085938 882.527344 775.167969 883.375 775.167969 883.882812 C 775.167969 890.070312 768.390625 892.191406 763.390625 892.191406 C 753.390625 892.191406 747.207031 886.257812 747.207031 876.085938 L 747.207031 852.183594 L 741.699219 852.183594 L 741.699219 843.367188 L 747.207031 843.367188 L 747.207031 834.042969 L 760.339844 834.042969 L 760.339844 843.367188 L 773.304688 843.367188 L 773.304688 852.183594 L 760.425781 852.183594 L 760.425781 875.578125 C 760.425781 880.492188 763.390625 883.460938 768.390625 883.460938 C 770.507812 883.460938 772.710938 882.867188 774.238281 881.679688 C 774.40625 881.511719 774.660156 881.511719 774.828125 881.59375 C 774.914062 881.765625 775 881.933594 775 882.101562 Z M 775 882.101562 " fill-opacity="1" fill-rule="nonzero"/><path fill="#1e407c" d="M 1269.839844 882.101562 C 1269.925781 882.527344 1270.007812 883.375 1270.007812 883.882812 C 1270.007812 890.070312 1263.230469 892.191406 1258.230469 892.191406 C 1248.234375 892.191406 1242.046875 886.257812 1242.046875 876.085938 L 1242.046875 852.183594 L 1236.539062 852.183594 L 1236.539062 843.367188 L 1242.046875 843.367188 L 1242.046875 834.042969 L 1255.179688 834.042969 L 1255.179688 843.367188 L 1268.144531 843.367188 L 1268.144531 852.183594 L 1255.265625 852.183594 L 1255.265625 875.578125 C 1255.265625 880.492188 1258.230469 883.460938 1263.230469 883.460938 C 1265.347656 883.460938 1267.550781 882.867188 1269.078125 881.679688 C 1269.246094 881.511719 1269.5 881.511719 1269.671875 881.59375 C 1269.753906 881.765625 1269.839844 881.933594 1269.839844 882.101562 Z M 1269.839844 882.101562 " fill-opacity="1" fill-rule="nonzero"/><path fill="#1e407c" d="M 1196.460938 849.808594 C 1197.054688 845.148438 1201.035156 842.773438 1205.359375 842.773438 C 1210.609375 842.773438 1214.253906 845.996094 1214.253906 851.503906 L 1214.253906 853.285156 L 1214.507812 853.285156 C 1218.40625 847.605469 1222.21875 842.097656 1229.335938 842.097656 C 1230.015625 842.097656 1230.863281 842.179688 1231.625 842.351562 L 1230.945312 855.148438 C 1229.589844 854.726562 1228.320312 854.554688 1226.878906 854.554688 C 1222.136719 854.554688 1218.492188 858.371094 1215.015625 861.84375 L 1215.015625 890.917969 L 1201.882812 890.917969 L 1201.882812 854.046875 C 1201.882812 852.097656 1201.289062 849.894531 1198.917969 849.894531 C 1198.324219 849.894531 1197.648438 850.0625 1197.054688 850.316406 C 1196.882812 850.402344 1196.714844 850.402344 1196.546875 850.234375 C 1196.460938 850.0625 1196.460938 849.980469 1196.460938 849.808594 Z M 1196.460938 849.808594 " fill-opacity="1" fill-rule="nonzero"/><path fill="#1e407c" d="M 852.613281 881 C 855.664062 882.867188 859.648438 883.796875 863.628906 883.796875 C 867.953125 883.796875 871.425781 882.273438 871.425781 878.542969 C 871.425781 875.324219 868.375 873.882812 863.800781 871.675781 C 857.613281 868.542969 852.445312 865.320312 852.445312 857.183594 C 852.445312 849.980469 858.460938 842.179688 872.359375 842.179688 C 876.171875 842.179688 879.644531 842.519531 882.695312 843.027344 L 881.167969 852.097656 C 878.710938 851.335938 875.40625 850.742188 872.359375 850.742188 C 867.527344 850.742188 864.984375 852.691406 864.984375 855.320312 C 864.984375 858.285156 868.460938 860.066406 872.867188 862.269531 C 878.796875 865.152344 884.472656 868.542969 884.472656 876.59375 C 884.472656 883.035156 879.644531 892.105469 864.902344 892.105469 C 856.429688 892.105469 851.511719 888.882812 851.511719 882.695312 C 851.511719 882.1875 851.511719 881.679688 851.597656 881.253906 C 851.597656 881.085938 851.683594 880.917969 851.9375 880.832031 C 852.191406 880.832031 852.445312 880.832031 852.613281 881 Z M 852.613281 881 " fill-opacity="1" fill-rule="nonzero"/><path fill="#1e407c" d="M 1104.695312 881 C 1107.746094 882.867188 1111.726562 883.796875 1115.710938 883.796875 C 1120.03125 883.796875 1123.503906 882.273438 1123.503906 878.542969 C 1123.503906 875.324219 1120.371094 873.882812 1115.878906 871.675781 C 1109.695312 868.542969 1104.527344 865.320312 1104.527344 857.183594 C 1104.527344 849.980469 1110.542969 842.179688 1124.4375 842.179688 C 1128.25 842.179688 1131.726562 842.519531 1134.773438 843.027344 L 1133.25 852.097656 C 1130.792969 851.335938 1127.488281 850.742188 1124.4375 850.742188 C 1119.609375 850.742188 1117.066406 852.691406 1117.066406 855.320312 C 1117.066406 858.285156 1120.539062 860.066406 1124.945312 862.269531 C 1130.878906 865.152344 1136.554688 868.542969 1136.554688 876.59375 C 1136.554688 883.035156 1131.726562 892.105469 1116.980469 892.105469 C 1108.421875 892.105469 1103.59375 888.882812 1103.59375 882.695312 C 1103.59375 882.1875 1103.59375 881.679688 1103.679688 881.253906 C 1103.679688 881.085938 1103.761719 880.917969 1104.015625 880.832031 C 1104.269531 880.832031 1104.527344 880.832031 1104.695312 881 Z M 1104.695312 881 " fill-opacity="1" fill-rule="nonzero"/><path fill="#1e407c" d="M 1273.820312 881 C 1276.871094 882.867188 1280.855469 883.796875 1284.835938 883.796875 C 1289.160156 883.796875 1292.632812 882.273438 1292.632812 878.542969 C 1292.632812 875.324219 1289.496094 873.882812 1285.007812 871.675781 C 1278.820312 868.542969 1273.652344 865.320312 1273.652344 857.183594 C 1273.652344 849.980469 1279.667969 842.179688 1293.566406 842.179688 C 1297.378906 842.179688 1300.851562 842.519531 1303.902344 843.027344 L 1302.378906 852.097656 C 1299.921875 851.335938 1296.617188 850.742188 1293.566406 850.742188 C 1288.734375 850.742188 1286.191406 852.691406 1286.191406 855.320312 C 1286.191406 858.285156 1289.667969 860.066406 1294.074219 862.269531 C 1300.003906 865.152344 1305.683594 868.542969 1305.683594 876.59375 C 1305.683594 883.035156 1300.851562 892.105469 1286.109375 892.105469 C 1277.550781 892.105469 1272.71875 888.882812 1272.71875 882.695312 C 1272.71875 882.1875 1272.71875 881.679688 1272.804688 881.253906 C 1272.804688 881.085938 1272.890625 880.917969 1273.144531 880.832031 C 1273.398438 880.832031 1273.652344 880.832031 1273.820312 881 Z M 1273.820312 881 " fill-opacity="1" fill-rule="nonzero"/><path fill="#1e407c" d="M 1018.859375 835.90625 C 1017.25 835.90625 1015.640625 836.078125 1014.117188 836.332031 L 1014.117188 855.910156 C 1015.808594 856.082031 1017.421875 856.167969 1019.113281 856.167969 C 1025.808594 856.167969 1031.148438 853.03125 1031.148438 846.078125 C 1031.0625 838.707031 1025.640625 835.90625 1018.859375 835.90625 Z M 1053.855469 883.628906 C 1054.023438 883.542969 1054.277344 883.542969 1054.363281 883.714844 C 1054.449219 883.796875 1054.53125 883.96875 1054.449219 884.136719 C 1054.023438 889.394531 1049.363281 891.511719 1044.367188 891.511719 C 1031.484375 891.511719 1024.285156 878.203125 1019.707031 863.878906 C 1017.84375 864.050781 1015.808594 864.050781 1014.03125 864.050781 L 1014.03125 890.832031 L 999.796875 890.832031 L 999.796875 828.535156 C 1006.742188 828.195312 1013.523438 827.855469 1020.46875 827.855469 C 1031.910156 827.855469 1045.550781 830.738281 1045.722656 844.808594 C 1045.722656 853.03125 1039.621094 858.964844 1032.585938 861.675781 C 1037.164062 870.238281 1045.636719 883.96875 1051.820312 883.96875 C 1052.585938 883.96875 1053.175781 883.796875 1053.855469 883.628906 Z M 1053.855469 883.628906 " fill-opacity="1" fill-rule="nonzero"/><path fill="#1e407c" d="M 926.585938 862.945312 C 924.636719 864.980469 923.621094 867.523438 923.621094 870.40625 C 923.621094 877.78125 930.570312 883.882812 938.28125 883.882812 C 940.820312 883.882812 943.53125 883.289062 945.652344 881.933594 C 938.957031 876 932.347656 869.8125 926.585938 862.945312 Z M 949.886719 856.421875 C 949.632812 856.503906 949.464844 856.503906 949.378906 856.421875 C 949.296875 856.335938 949.210938 856.25 949.125 856.082031 C 949.039062 855.574219 948.957031 855.0625 948.957031 854.554688 C 948.957031 850.570312 952.429688 848.199219 956.074219 848.199219 C 963.613281 848.199219 968.191406 855.0625 968.191406 862.523438 C 968.191406 868.878906 965.5625 874.898438 961.496094 879.558594 C 965.816406 883.289062 970.394531 887.105469 974.800781 890.75 L 955.820312 890.75 C 955.058594 890.15625 952.261719 887.953125 951.496094 887.273438 C 946.328125 890.324219 940.226562 892.273438 933.957031 892.273438 C 923.027344 892.273438 911.929688 885.15625 911.929688 873.371094 C 911.929688 865.914062 915.742188 860.234375 922.179688 856.84375 C 919.46875 853.367188 917.351562 848.875 917.351562 844.894531 C 917.351562 832.773438 928.703125 827.261719 939.128906 827.261719 C 943.195312 827.261719 947.261719 827.601562 951.328125 828.109375 L 949.972656 838.195312 C 947.175781 837.347656 944.125 836.839844 941.160156 836.839844 C 935.738281 836.839844 931.332031 839.636719 931.332031 845.402344 C 931.332031 852.859375 947.09375 866.675781 954.972656 873.628906 C 956.328125 871.253906 957.003906 868.625 957.003906 865.488281 C 957.003906 860.488281 954.632812 855.996094 950.988281 855.996094 C 950.820312 856.167969 950.3125 856.25 949.886719 856.421875 Z M 949.886719 856.421875 " fill-opacity="1" fill-rule="nonzero"/><path fill="#1e407c" d="M 846.429688 884.054688 C 846.597656 883.96875 846.851562 883.96875 847.023438 884.054688 C 847.105469 884.136719 847.277344 884.308594 847.191406 884.5625 C 846.683594 888.375 843.546875 891.511719 838.292969 891.511719 C 832.195312 891.511719 828.804688 887.527344 828.804688 881 L 828.804688 824.296875 L 841.9375 824.296875 L 841.9375 880.238281 C 841.9375 882.527344 842.617188 884.390625 844.902344 884.390625 C 845.414062 884.390625 845.921875 884.308594 846.429688 884.054688 Z M 846.429688 884.054688 " fill-opacity="1" fill-rule="nonzero"/><path fill="#1e407c" d="M 306.679688 685.964844 C 308.460938 685.457031 310.664062 685.203125 312.441406 685.539062 C 322.1875 687.234375 325.832031 703.59375 324.984375 726.90625 C 324.050781 753.6875 313.542969 797.511719 294.054688 797.679688 C 292.613281 797.679688 290.75 797.679688 289.308594 797.171875 L 270.074219 667.0625 L 234.488281 667.0625 L 248.636719 752.332031 C 246.011719 769.453125 238.640625 794.121094 223.472656 796.75 C 222.03125 797.003906 218.304688 797.257812 216.269531 796.832031 L 197.121094 667.0625 L 161.449219 667.0625 L 187.546875 824.210938 C 196.273438 826.414062 205.933594 826.585938 214.066406 824.804688 C 233.640625 820.480469 248.554688 801.410156 253.382812 781.066406 L 260.585938 824.296875 C 269.058594 826.246094 274.144531 826.160156 281.601562 826.074219 C 301.171875 825.738281 316.847656 814.972656 327.609375 798.613281 C 344.300781 773.269531 351.164062 736.90625 351.164062 706.984375 C 351.164062 682.488281 343.707031 664.09375 325.238281 664.09375 C 316.085938 664.09375 306.085938 671.722656 305.238281 684.945312 C 305.238281 685.457031 305.324219 685.792969 305.578125 685.964844 C 306.003906 686.132812 306.425781 686.132812 306.679688 685.964844 Z M 68.664062 734.789062 C 87.136719 733.347656 95.78125 729.785156 103.152344 724.953125 C 111.457031 719.53125 115.269531 712.15625 115.609375 705.035156 C 116.03125 696.730469 111.03125 688 96.203125 684.609375 C 88.410156 682.828125 77.988281 682.914062 68.582031 684.183594 L 68.582031 734.789062 Z M 83.410156 805.816406 C 95.695312 805.816406 102.21875 803.445312 107.898438 800.136719 C 118.066406 794.289062 123.828125 782.253906 122.640625 769.792969 C 121.453125 757.589844 113.320312 749.789062 101.542969 746.398438 C 92.898438 743.941406 80.953125 743.941406 68.664062 747.246094 L 68.664062 804.375 C 72.734375 805.394531 78.75 805.816406 83.410156 805.816406 Z M 121.625 732.582031 C 127.46875 733.769531 134.078125 735.972656 139.417969 738.941406 C 155.601562 747.839844 161.617188 761.910156 159.839844 778.695312 C 158.058594 795.054688 147.042969 809.292969 130.945312 817.007812 C 121.03125 821.753906 109.59375 824.464844 96.035156 825.484375 C 76.886719 826.921875 54.683594 825.652344 34.179688 821.835938 L 34.179688 669.265625 C 50.871094 666.554688 69.597656 664.179688 86.121094 664.179688 C 104 664.179688 116.285156 665.960938 128.402344 671.640625 C 142.722656 678.335938 147.722656 689.695312 147.804688 699.1875 C 147.890625 708.597656 142.296875 723.515625 121.625 732.582031 Z M 121.625 732.582031 " fill-opacity="1" fill-rule="nonzero"/><path fill="#1e407c" d="M 427.679688 609.761719 C 432.339844 666.214844 434.289062 709.445312 434.289062 745.890625 C 434.289062 782.339844 432.171875 825.566406 427.679688 882.019531 C 427.59375 883.121094 426.664062 883.96875 425.5625 883.96875 C 424.460938 883.96875 423.527344 883.121094 423.441406 882.019531 C 418.78125 825.484375 416.832031 782.253906 416.832031 745.890625 C 416.832031 709.527344 418.867188 666.300781 423.441406 609.761719 C 423.527344 608.660156 424.460938 607.8125 425.5625 607.8125 C 426.664062 607.8125 427.59375 608.660156 427.679688 609.761719 Z M 427.679688 609.761719 " fill-opacity="1" fill-rule="nonzero"/><path fill="#1e407c" d="M 1453.371094 764.367188 C 1452.949219 764.367188 1452.523438 764.367188 1452.183594 764.453125 L 1452.183594 769.625 C 1452.609375 769.625 1453.117188 769.710938 1453.539062 769.710938 C 1455.320312 769.710938 1456.929688 768.945312 1456.929688 766.996094 C 1456.929688 765.132812 1455.234375 764.367188 1453.371094 764.367188 Z M 1453.878906 771.320312 C 1453.285156 771.40625 1452.691406 771.320312 1452.101562 771.320312 L 1452.101562 778.015625 L 1449.644531 778.015625 L 1449.644531 763.011719 C 1451 762.929688 1452.355469 762.84375 1453.625 762.84375 C 1456.167969 762.84375 1459.21875 763.523438 1459.21875 766.742188 C 1459.21875 768.777344 1457.691406 770.300781 1455.996094 770.894531 C 1457.777344 774.117188 1459.21875 776.40625 1460.402344 776.40625 C 1460.574219 776.40625 1460.742188 776.40625 1460.828125 776.320312 L 1460.996094 776.40625 L 1460.996094 776.574219 C 1460.996094 777.253906 1460.402344 778.015625 1459.386719 778.015625 C 1456.84375 778.015625 1455.320312 774.792969 1453.878906 771.320312 Z M 1454.472656 760.554688 C 1449.21875 760.554688 1445.066406 764.792969 1445.066406 770.640625 C 1445.066406 776.488281 1449.132812 780.8125 1454.472656 780.8125 C 1459.726562 780.8125 1463.707031 776.488281 1463.707031 770.640625 C 1463.792969 764.960938 1459.640625 760.554688 1454.472656 760.554688 Z M 1454.472656 782.339844 C 1448.03125 782.339844 1443.203125 777.421875 1443.203125 770.640625 C 1443.203125 764.03125 1448.03125 759.027344 1454.472656 759.027344 C 1460.910156 759.027344 1465.65625 764.199219 1465.65625 770.640625 C 1465.742188 777.335938 1460.914062 782.339844 1454.472656 782.339844 Z M 1454.472656 782.339844 " fill-opacity="1" fill-rule="nonzero"/></svg>