<svg xmlns="http://www.w3.org/2000/svg" xmlns:xlink="http://www.w3.org/1999/xlink" width="2000" zoomAndPan="magnify" viewBox="0 0 1500 1499.999933" height="2000" preserveAspectRatio="xMidYMid meet" version="1.0"><defs><clipPath id="524fc55352"><path d="M 259 459.632812 L 1240 459.632812 L 1240 846 L 259 846 Z M 259 459.632812 " clip-rule="nonzero"/></clipPath><clipPath id="3131e36430"><path d="M 462 894 L 553 894 L 553 1040.132812 L 462 1040.132812 Z M 462 894 " clip-rule="nonzero"/></clipPath><clipPath id="eef93d7b5e"><path d="M 570 894 L 659 894 L 659 1040.132812 L 570 1040.132812 Z M 570 894 " clip-rule="nonzero"/></clipPath><clipPath id="e9e273d960"><path d="M 726 894 L 811 894 L 811 1040.132812 L 726 1040.132812 Z M 726 894 " clip-rule="nonzero"/></clipPath><clipPath id="13fc7bee8b"><path d="M 965 894 L 1050 894 L 1050 1040.132812 L 965 1040.132812 Z M 965 894 " clip-rule="nonzero"/></clipPath><clipPath id="8b8d09ad53"><path d="M 1069 894 L 1153 894 L 1153 1040.132812 L 1069 1040.132812 Z M 1069 894 " clip-rule="nonzero"/></clipPath><clipPath id="f1cd2da376"><path d="M 31.203125 897 L 126 897 L 126 1037 L 31.203125 1037 Z M 31.203125 897 " clip-rule="nonzero"/></clipPath><clipPath id="3b2de511b5"><path d="M 1381 897 L 1468.953125 897 L 1468.953125 1038 L 1381 1038 Z M 1381 897 " clip-rule="nonzero"/></clipPath></defs><g clip-path="url(#524fc55352)"><path fill="#444444" d="M 315.113281 506.925781 C 284.804688 532.867188 259.960938 554.300781 259.960938 554.539062 C 259.878906 555.089844 425.414062 614.722656 425.890625 614.328125 C 426.046875 614.089844 424.230469 608.078125 421.695312 601.039062 C 419.164062 593.921875 416.949219 587.675781 416.710938 587.121094 C 416.472656 586.410156 420.113281 586.171875 433.40625 586.171875 L 450.339844 586.171875 L 491.011719 698.082031 L 531.683594 809.988281 L 591.742188 809.75 L 651.800781 809.59375 L 676.410156 741.417969 C 689.9375 703.855469 701.175781 673.167969 701.414062 673.167969 C 701.648438 673.167969 734.644531 703.933594 774.605469 741.578125 L 847.402344 809.988281 L 883.089844 809.988281 C 902.714844 809.988281 956.203125 810.226562 1001.941406 810.542969 L 1085.023438 811.015625 L 1079.246094 828.097656 C 1076.003906 837.429688 1073.472656 845.179688 1073.628906 845.339844 C 1074.023438 845.8125 1239.480469 779.617188 1239.324219 779.066406 C 1239.164062 778.589844 1139.78125 694.679688 1130.125 686.769531 C 1129.019531 685.902344 1128.226562 687.800781 1123.164062 702.429688 L 1117.464844 719.039062 L 1044.90625 719.039062 L 1046.332031 714.847656 C 1047.121094 712.632812 1065.320312 662.414062 1086.683594 603.414062 C 1108.050781 544.335938 1125.539062 495.699219 1125.539062 495.300781 C 1125.539062 494.667969 1020.21875 493.167969 1012.066406 493.800781 L 1008.191406 494.035156 L 964.90625 614.089844 C 941.089844 680.128906 921.308594 734.066406 920.914062 733.984375 C 920.515625 733.90625 904.691406 720.066406 885.78125 703.300781 L 851.359375 672.773438 L 860.460938 672.21875 C 914.109375 668.738281 946.707031 647.386719 956.757812 609.109375 C 959.527344 598.589844 960.160156 580.398438 958.183594 568.695312 C 952.328125 533.578125 930.488281 507.324219 898.757812 497.359375 C 886.335938 493.402344 887.046875 493.484375 762.65625 494.035156 L 646.183594 494.667969 L 618.644531 570.828125 C 603.453125 612.667969 590.792969 646.753906 590.554688 646.4375 C 590.238281 646.121094 577.894531 612.269531 563.097656 571.144531 C 548.300781 530.019531 535.878906 495.777344 535.640625 494.984375 C 535.085938 493.71875 530.734375 493.640625 458.964844 493.640625 L 382.925781 493.640625 L 377.070312 476.636719 C 373.902344 467.304688 371.054688 459.632812 370.738281 459.714844 C 370.5 459.714844 345.417969 480.988281 315.113281 506.925781 Z M 827.78125 566.003906 C 838.382812 570.433594 842.972656 582.457031 838.777344 594.792969 C 837.195312 599.378906 831.734375 606.023438 827.859375 608 C 826.117188 608.949219 817.253906 609.109375 775.792969 609.109375 C 747.070312 609.109375 725.941406 608.792969 725.941406 608.394531 C 725.941406 607.761719 738.523438 571.542969 740.265625 566.953125 L 741.136719 564.820312 L 783.074219 564.820312 C 818.839844 564.820312 825.328125 564.976562 827.78125 566.003906 Z M 827.78125 566.003906 " fill-opacity="1" fill-rule="nonzero"/></g><g clip-path="url(#3131e36430)"><path fill="#444444" d="M 492.359375 895.875 C 483.734375 897.933594 478.195312 901.808594 472.257812 909.796875 C 465.214844 919.363281 463.316406 929.726562 462.683594 961.121094 C 461.894531 1002.800781 464.664062 1017.351562 475.742188 1029.136719 C 483.8125 1037.835938 490.378906 1040.128906 507.15625 1040.128906 C 523.929688 1040.128906 530.339844 1037.996094 538.566406 1029.769531 C 546.796875 1021.546875 550.199219 1011.105469 551.941406 988.328125 C 552.96875 975.359375 552.496094 946.886719 551.070312 935.734375 C 549.960938 926.957031 547.507812 918.179688 544.898438 913.355469 C 539.992188 904.339844 530.417969 897.300781 520.289062 895.402344 C 514.277344 894.292969 497.738281 894.53125 492.359375 895.875 Z M 514.195312 917.070312 C 523.21875 920.789062 525.195312 930.042969 525.195312 967.371094 C 525.195312 1004.066406 523.375 1013.242188 515.226562 1017.433594 C 511.425781 1019.410156 504.066406 1019.488281 500.113281 1017.589844 C 493.859375 1014.664062 491.488281 1008.574219 490.0625 992.441406 C 488.875 978.679688 489.589844 940.164062 491.25 931.386719 C 493.308594 920.710938 498.132812 915.964844 506.996094 915.964844 C 509.527344 915.964844 512.773438 916.4375 514.195312 917.070312 Z M 514.195312 917.070312 " fill-opacity="1" fill-rule="nonzero"/></g><g clip-path="url(#eef93d7b5e)"><path fill="#444444" d="M 601.632812 895.796875 C 590.714844 898.011719 581.375 904.8125 576.945312 913.90625 C 571.960938 924.109375 570.0625 937.792969 570.0625 963.734375 C 570.0625 1021.941406 579.636719 1040.128906 609.941406 1040.128906 C 624.183594 1040.128906 631.066406 1037.046875 636.289062 1028.425781 C 637.636719 1026.132812 638.902344 1024.550781 639.140625 1024.867188 C 639.375 1025.183594 639.773438 1028.109375 640.089844 1031.195312 L 640.644531 1036.96875 L 658.683594 1036.96875 L 658.683594 961.042969 L 615.953125 961.042969 L 615.953125 983.980469 L 633.363281 983.980469 L 633.363281 989.671875 C 633.363281 1001.851562 630.277344 1012.210938 625.6875 1015.457031 C 624.421875 1016.324219 621.730469 1017.511719 619.675781 1018.066406 C 609.546875 1020.597656 601.949219 1015.058594 599.417969 1003.195312 C 596.804688 990.859375 596.332031 952.820312 598.546875 936.132812 C 600.128906 924.585938 603.136719 919.046875 609.070312 916.835938 C 612.234375 915.648438 620.308594 915.726562 623.3125 917.070312 C 629.167969 919.601562 633.046875 926.5625 633.917969 936.050781 L 634.390625 942.0625 L 658.683594 942.0625 L 658.683594 935.101562 C 658.683594 926.957031 656.625 917.785156 653.382812 911.929688 C 650.691406 906.871094 644.679688 901.332031 639.375 898.882812 C 630.515625 894.847656 613.421875 893.425781 601.632812 895.796875 Z M 601.632812 895.796875 " fill-opacity="1" fill-rule="nonzero"/></g><g clip-path="url(#e9e273d960)"><path fill="#444444" d="M 754.664062 895.796875 C 742.558594 899.117188 734.171875 906.871094 730.769531 917.941406 C 727.445312 928.777344 728 940.957031 732.273438 949.65625 C 735.515625 956.21875 741.847656 962.070312 760.835938 975.832031 C 769.382812 982 777.613281 988.488281 779.117188 990.226562 C 785.84375 998.054688 785.050781 1011.183594 777.535156 1016.167969 C 772.152344 1019.726562 762.578125 1019.488281 758.464844 1015.691406 C 755.378906 1012.765625 754.429688 1009.128906 753.875 997.660156 L 753.398438 987.933594 L 727.605469 987.933594 L 727.050781 991.570312 C 725.863281 999.480469 728.316406 1014.980469 731.957031 1022.019531 C 738.445312 1034.832031 749.046875 1040.128906 768.277344 1040.128906 C 783.46875 1040.128906 791.222656 1037.679688 799.054688 1030.5625 C 806.890625 1023.441406 810.132812 1014.664062 810.132812 1000.585938 C 810.132812 980.261719 804.4375 972.035156 777.929688 954.003906 C 759.019531 941.113281 754.429688 936.132812 754.429688 928.617188 C 754.429688 919.996094 762.65625 914.304688 771.679688 916.675781 C 778.957031 918.652344 782.121094 924.347656 782.121094 935.5 L 782.121094 941.273438 L 807.445312 941.273438 L 807.445312 933.917969 C 807.363281 913.195312 798.421875 900.382812 780.777344 895.796875 C 775 894.292969 760.203125 894.292969 754.664062 895.796875 Z M 754.664062 895.796875 " fill-opacity="1" fill-rule="nonzero"/></g><g clip-path="url(#13fc7bee8b)"><path fill="#444444" d="M 993.394531 896.035156 C 986.589844 897.851562 981.683594 900.78125 977.25 905.839844 C 968.230469 916.121094 966.492188 924.503906 965.9375 960.570312 C 965.222656 1004.859375 967.675781 1018.777344 978.042969 1029.847656 C 985.085938 1037.363281 992.917969 1040.128906 1007.636719 1040.128906 C 1019.191406 1040.128906 1024.964844 1038.945312 1031.296875 1035.148438 C 1042.453125 1028.425781 1047.675781 1017.195312 1048.546875 997.582031 L 1049.019531 987.140625 L 1022.671875 987.140625 L 1022.671875 994.261719 C 1022.671875 1007.625 1020.058594 1014.742188 1014.203125 1017.351562 C 1009.773438 1019.332031 1003.839844 1019.015625 1000.671875 1016.640625 C 994.027344 1011.660156 993.15625 1006.203125 993.078125 967.765625 C 993 935.894531 993.550781 928.933594 996.636719 922.449219 C 998.695312 918.335938 1002.808594 915.964844 1008.03125 915.964844 C 1016.816406 915.964844 1021.246094 921.894531 1022.355469 935.023438 L 1022.910156 941.273438 L 1048.230469 941.273438 L 1047.753906 933.125 C 1046.410156 911.21875 1037.546875 899.039062 1020.457031 895.480469 C 1014.125 894.136719 999.40625 894.453125 993.394531 896.035156 Z M 993.394531 896.035156 " fill-opacity="1" fill-rule="nonzero"/></g><g clip-path="url(#8b8d09ad53)"><path fill="#444444" d="M 1095.785156 896.113281 C 1089.375 897.933594 1084.707031 900.78125 1080.277344 905.523438 C 1073.789062 912.40625 1070.9375 920.394531 1070.9375 931.542969 C 1070.9375 949.574219 1075.292969 955.902344 1100.214844 973.699219 C 1122.6875 989.832031 1125.773438 993.390625 1125.855469 1002.960938 C 1125.855469 1013.242188 1120.632812 1018.382812 1109.949219 1018.382812 C 1099.503906 1018.382812 1096.8125 1014.425781 1096.417969 998.453125 L 1096.101562 987.933594 L 1069.355469 987.933594 L 1069.355469 996.789062 C 1069.355469 1011.34375 1072.757812 1022.574219 1079.246094 1029.769531 C 1082.730469 1033.566406 1091.195312 1038.074219 1097.527344 1039.339844 C 1103.777344 1040.683594 1123.164062 1039.972656 1128.464844 1038.230469 C 1135.191406 1036.097656 1142.074219 1030.957031 1145.871094 1025.261719 C 1150.9375 1017.75 1152.046875 1013.242188 1152.046875 1000.585938 C 1152.046875 987.855469 1150.859375 983.265625 1145.871094 975.910156 C 1141.601562 969.742188 1135.429688 964.523438 1119.839844 953.925781 C 1097.367188 938.582031 1092.382812 930.992188 1098.871094 921.421875 C 1104.726562 912.722656 1120.078125 915.410156 1123.164062 925.691406 C 1123.71875 927.511719 1124.351562 931.78125 1124.585938 935.101562 L 1124.984375 941.273438 L 1150.304688 941.273438 L 1149.828125 932.730469 C 1149.117188 919.207031 1145.792969 910.902344 1138.355469 903.941406 C 1133.609375 899.515625 1129.574219 897.378906 1123.003906 895.796875 C 1116.121094 894.214844 1101.957031 894.375 1095.785156 896.113281 Z M 1095.785156 896.113281 " fill-opacity="1" fill-rule="nonzero"/></g><g clip-path="url(#f1cd2da376)"><path fill="#444444" d="M 31.203125 899.117188 C 31.203125 899.910156 38.085938 931.148438 46.472656 968.558594 L 61.746094 1036.570312 L 79.074219 1036.808594 L 96.480469 1036.96875 L 110.644531 969.191406 C 118.480469 931.859375 124.96875 900.542969 125.203125 899.515625 L 125.523438 897.773438 L 111.4375 897.933594 L 97.351562 898.167969 L 88.488281 951.472656 C 83.582031 980.734375 79.46875 1004.859375 79.3125 1005.015625 C 79.152344 1005.175781 74.5625 981.132812 69.101562 951.710938 L 59.210938 898.167969 L 45.207031 897.933594 C 32.230469 897.773438 31.203125 897.851562 31.203125 899.117188 Z M 31.203125 899.117188 " fill-opacity="1" fill-rule="nonzero"/></g><path fill="#444444" d="M 140.398438 967.371094 L 140.398438 1036.96875 L 166.507812 1036.96875 L 166.507812 975.832031 L 175.054688 976.308594 C 187.636719 977.019531 191.671875 978.125 195.152344 981.527344 C 196.738281 983.1875 198.398438 985.796875 198.871094 987.539062 C 199.269531 989.277344 199.902344 998.136719 200.140625 1007.308594 C 200.691406 1024.234375 201.640625 1035.226562 202.75 1036.335938 C 203.144531 1036.730469 210.265625 1036.886719 218.65625 1036.808594 L 233.925781 1036.570312 L 232.1875 1034.355469 C 228.625 1029.929688 227.515625 1023.917969 226.726562 1005.09375 C 225.933594 987.300781 225.0625 982.238281 221.898438 976.070312 C 220.238281 972.828125 215.410156 968.082031 212.007812 966.34375 L 209.632812 965.078125 L 212.484375 963.890625 C 221.898438 959.9375 226.648438 949.972656 226.648438 934.152344 C 226.648438 917.546875 221.027344 906.316406 210.265625 901.570312 C 202.828125 898.25 197.605469 897.773438 168.328125 897.773438 L 140.398438 897.773438 Z M 189.535156 919.128906 C 196.578125 921.183594 199.664062 926.324219 199.742188 935.972656 C 199.742188 944.277344 198.476562 948.785156 195.390625 951.949219 C 191.988281 955.347656 187.636719 956.296875 176.085938 956.296875 L 166.507812 956.296875 L 166.507812 917.308594 L 176.636719 917.785156 C 182.175781 918.019531 187.953125 918.652344 189.535156 919.128906 Z M 189.535156 919.128906 " fill-opacity="1" fill-rule="nonzero"/><path fill="#444444" d="M 246.429688 967.371094 L 246.429688 1036.96875 L 319.226562 1036.96875 L 319.226562 1013.242188 L 273.332031 1013.242188 L 273.332031 897.773438 L 246.429688 897.773438 Z M 246.429688 967.371094 " fill-opacity="1" fill-rule="nonzero"/><path fill="#444444" d="M 381.738281 967.371094 L 381.738281 1036.96875 L 454.535156 1036.96875 L 454.535156 1013.242188 L 408.640625 1013.242188 L 408.640625 897.773438 L 381.738281 897.773438 Z M 381.738281 967.371094 " fill-opacity="1" fill-rule="nonzero"/><path fill="#444444" d="M 680.839844 967.371094 L 680.839844 1036.96875 L 706.953125 1036.96875 L 706.953125 897.773438 L 680.839844 897.773438 Z M 680.839844 967.371094 " fill-opacity="1" fill-rule="nonzero"/><path fill="#444444" d="M 820.894531 909.636719 L 820.894531 921.5 L 850.171875 921.5 L 850.171875 1036.96875 L 876.285156 1036.96875 L 876.285156 921.5 L 906.351562 921.5 L 906.351562 897.773438 L 820.894531 897.773438 Z M 820.894531 909.636719 " fill-opacity="1" fill-rule="nonzero"/><path fill="#444444" d="M 919.015625 967.371094 L 919.015625 1036.96875 L 945.125 1036.96875 L 945.125 897.773438 L 919.015625 897.773438 Z M 919.015625 967.371094 " fill-opacity="1" fill-rule="nonzero"/><path fill="#444444" d="M 1218.117188 967.371094 L 1218.117188 1036.96875 L 1291.707031 1036.96875 L 1291.707031 1013.242188 L 1245.019531 1013.242188 L 1245.019531 897.773438 L 1218.117188 897.773438 Z M 1218.117188 967.371094 " fill-opacity="1" fill-rule="nonzero"/><path fill="#444444" d="M 1283 909.636719 L 1283 921.5 L 1313.070312 921.5 L 1313.070312 1036.96875 L 1339.183594 1036.96875 L 1339.183594 921.5 L 1368.460938 921.5 L 1368.460938 897.773438 L 1283 897.773438 Z M 1283 909.636719 " fill-opacity="1" fill-rule="nonzero"/><g clip-path="url(#3b2de511b5)"><path fill="#444444" d="M 1381.910156 967.371094 L 1381.910156 1037.125 L 1410.632812 1036.730469 C 1440.386719 1036.414062 1443.15625 1036.097656 1449.800781 1032.695312 C 1457.082031 1028.898438 1463.808594 1017.75 1466.734375 1004.460938 C 1468.160156 997.976562 1468.398438 993.46875 1468.714844 969.824219 C 1469.269531 932.574219 1468 923.476562 1460.644531 912.5625 C 1456.605469 906.554688 1451.386719 902.441406 1444.5 900.066406 C 1439.515625 898.328125 1438.089844 898.25 1410.632812 897.933594 L 1381.910156 897.617188 Z M 1429.386719 919.917969 C 1434.136719 921.183594 1438.011719 926.402344 1440.226562 934.550781 C 1442.917969 944.671875 1443.3125 981.527344 1440.859375 996.078125 C 1440.226562 999.480469 1438.722656 1004.542969 1437.378906 1007.386719 C 1434.136719 1014.347656 1431.601562 1015.457031 1417.519531 1016.167969 L 1407.230469 1016.640625 L 1407.230469 918.097656 L 1416.964844 918.652344 C 1422.265625 918.96875 1427.882812 919.523438 1429.386719 919.917969 Z M 1429.386719 919.917969 " fill-opacity="1" fill-rule="nonzero"/></g></svg>